<svg xmlns="http://www.w3.org/2000/svg" width="24" height="24" viewBox="0 0 24 24"><defs><style>.a{fill:#fff;}</style></defs><path class="a" d="M22.5,1a.5.5,0,0,1,.5.5v21a.5.5,0,0,1-.5.5H1.5a.5.5,0,0,1-.5-.5V1.5A.5.5,0,0,1,1.5,1h21m0-1H1.5A1.5,1.5,0,0,0,0,1.5v21A1.5,1.5,0,0,0,1.5,24h21A1.5,1.5,0,0,0,24,22.5V1.5A1.5,1.5,0,0,0,22.5,0Z"/><path class="a" d="M19,14c0,1.92-1.21,4.79-6.33,5.54l-1-1.47c4.69-.48,5.65-2.72,5.65-4.21v-.05A2.82,2.82,0,0,0,15.08,11a27.77,27.77,0,0,1-3.54,5.12,6.28,6.28,0,0,0,.69,1l-1.39.79a3.29,3.29,0,0,1-.46-.63,1.27,1.27,0,0,1-.12.1A4.8,4.8,0,0,1,7.4,18.66,2.43,2.43,0,0,1,5,15.94a6.8,6.8,0,0,1,4.17-5.81c0-.79,0-1.57.11-2.36H5.49V6.27H9.37c.06-.59.12-1.2.19-1.76l1.66.06c-.06.55-.14,1.12-.22,1.7h6.88v1.5H10.82c-.06.6-.12,1.2-.16,1.8a8.56,8.56,0,0,1,2.18-.28A8.71,8.71,0,0,1,14,9.36l.39-.88L16.09,9c-.11.24-.22.46-.34.7A4.26,4.26,0,0,1,19,13.81ZM9.14,11.76a5.46,5.46,0,0,0-2.57,3.76c0,.1,0,.19,0,.29,0,.61.16,1.23.91,1.23.32,0,1,0,2.26-1.25A16,16,0,0,1,9.14,11.76Zm3.44-1.07a6.15,6.15,0,0,0-2,.35A13.79,13.79,0,0,0,11,14.45a22.73,22.73,0,0,0,2.42-3.76Z"/></svg>