<svg xmlns="http://www.w3.org/2000/svg" width="24" height="24" viewBox="0 0 24 24"><defs><style>.a{fill:#fff;}</style></defs><path class="a" d="M4.36,18.64V5.36H12V6.91H6.22v3.83h5V12.3h-5v4.77H12v1.57Z"/><path class="a" d="M18.65,18.64v-6A1.72,1.72,0,0,0,16.8,10.9a2,2,0,0,0-2,1.45v6.29H13.08V9.79h1.76v.4A3.57,3.57,0,0,1,17,9.45c2.45,0,3.42,1.53,3.42,3v6.19Z"/><path class="a" d="M22.5,1a.5.5,0,0,1,.5.5v21a.5.5,0,0,1-.5.5H1.5a.5.5,0,0,1-.5-.5V1.5A.5.5,0,0,1,1.5,1h21m0-1H1.5A1.5,1.5,0,0,0,0,1.5v21A1.5,1.5,0,0,0,1.5,24h21A1.5,1.5,0,0,0,24,22.5V1.5A1.5,1.5,0,0,0,22.5,0Z"/></svg>