<svg xmlns="http://www.w3.org/2000/svg" width="22" height="22" viewBox="0 0 22 22"><defs><style>.a{fill:#fff;}</style></defs><path class="a" d="M6,14.22v.26c0,.56.15,1.13.84,1.13.29,0,.92,0,2.08-1.15a14.46,14.46,0,0,1-.55-3.7A5,5,0,0,0,6,14.22Z"/><path class="a" d="M9.7,10.09a12.74,12.74,0,0,0,.39,3.14,20.57,20.57,0,0,0,2.22-3.46h-.77A6,6,0,0,0,9.7,10.09Z"/><path class="a" d="M20.5,0H1.5A1.5,1.5,0,0,0,0,1.5v19A1.5,1.5,0,0,0,1.5,22h19A1.5,1.5,0,0,0,22,20.5V1.5A1.5,1.5,0,0,0,20.5,0ZM17.45,12.82c0,1.76-1.12,4.4-5.83,5.09l-.92-1.35c4.32-.44,5.2-2.5,5.2-3.87v0a2.59,2.59,0,0,0-2.06-2.58,25.7,25.7,0,0,1-3.26,4.71,7.21,7.21,0,0,0,.64.92l-1.28.72a3.07,3.07,0,0,1-.42-.58l-.11.1A4.4,4.4,0,0,1,6.78,17.1a2.23,2.23,0,0,1-2.23-2.24,2.28,2.28,0,0,1,0-.26A6.26,6.26,0,0,1,8.4,9.26a14.28,14.28,0,0,1,.11-2.17H5V5.71H8.59c.05-.55.11-1.11.17-1.62l1.53,0c0,.51-.13,1-.2,1.57h6.33V7.09H9.92c-.05.55-.11,1.1-.14,1.65a7.89,7.89,0,0,1,2-.26,7.69,7.69,0,0,1,1.07.07l.36-.81,1.56.48c-.1.22-.2.42-.31.64a3.93,3.93,0,0,1,3,3.78Z"/></svg>