<svg xmlns="http://www.w3.org/2000/svg" width="13" height="13" viewBox="0 0 13 13"><defs><style>.a{fill:#d1c0a5;}.b{opacity:0.5;}.c{fill:none;stroke:#231815;stroke-linejoin:round;stroke-width:1.5px;}.d{fill:#fff;}</style></defs><circle class="a" cx="6.5" cy="6.5" r="6.5"/><g class="b"><path class="c" d="M3.61,10.18V4.78H2.07V4h.11c.72,0,1.53-.18,1.75-1.12V2.75h.88v7.43Z"/><path class="c" d="M8.63,2.75c1.43,0,2.22.89,2.22,3.79s-.79,3.79-2.22,3.79S6.4,9.43,6.4,6.54,7.2,2.75,8.63,2.75Zm0,6.74c.81,0,1-.8,1-2.95s-.22-2.95-1-2.95-1,.79-1,3S7.82,9.49,8.63,9.49Z"/></g><path class="d" d="M3.61,10.18V4.78H2.07V4h.11c.72,0,1.53-.18,1.75-1.12V2.75h.88v7.43Z"/><path class="d" d="M8.63,2.75c1.43,0,2.22.89,2.22,3.79s-.79,3.79-2.22,3.79S6.4,9.43,6.4,6.54,7.2,2.75,8.63,2.75Zm0,6.74c.81,0,1-.8,1-2.95s-.22-2.95-1-2.95-1,.79-1,3S7.82,9.49,8.63,9.49Z"/></svg>