<svg xmlns="http://www.w3.org/2000/svg" width="13" height="13" viewBox="0 0 13 13"><defs><style>.a{fill:#f8d251;}.b{opacity:0.5;}.c{fill:none;stroke:#231815;stroke-linejoin:round;stroke-width:1.5px;}.d{fill:#fff;}</style></defs><circle class="a" cx="6.5" cy="6.5" r="6.5"/><g class="b"><path class="c" d="M8.86,10.18h-5A3.25,3.25,0,0,1,5.46,7.4c1-.71,2.19-1.27,2.22-2.42a1.16,1.16,0,0,0-1.24-1.3c-1,0-1.23.8-1.26,1.84H4c0-1.63.89-2.84,2.53-2.84A2.18,2.18,0,0,1,8.87,4.94c0,2.35-3.19,2.86-3.59,4.17H8.86Z"/></g><path class="d" d="M8.86,10.18h-5A3.25,3.25,0,0,1,5.46,7.4c1-.71,2.19-1.27,2.22-2.42a1.16,1.16,0,0,0-1.24-1.3c-1,0-1.23.8-1.26,1.84H4c0-1.63.89-2.84,2.53-2.84A2.18,2.18,0,0,1,8.87,4.94c0,2.35-3.19,2.86-3.59,4.17H8.86Z"/></svg>