<svg xmlns="http://www.w3.org/2000/svg" width="13" height="13" viewBox="0 0 13 13"><defs><style>.a{fill:#7fc169;}.b{opacity:0.5;}.c{fill:none;stroke:#231815;stroke-linejoin:round;stroke-width:1.5px;}.d{fill:#fff;}</style></defs><circle class="a" cx="6.58" cy="6.5" r="6.5"/><g class="b"><path class="c" d="M6.06,5.88c.8,0,1.63-.26,1.63-1.16a1,1,0,0,0-1.15-1,1.31,1.31,0,0,0-1.22,1.5H4.13a2.39,2.39,0,0,1,2.43-2.5,2.1,2.1,0,0,1,2.32,2,1.52,1.52,0,0,1-1,1.57v0A1.72,1.72,0,0,1,9.18,8.08a2.38,2.38,0,0,1-2.61,2.25A2.37,2.37,0,0,1,4,7.76h1.2A1.35,1.35,0,0,0,6.57,9.33,1.28,1.28,0,0,0,8,8C8,6.87,7,6.74,6.06,6.77Z"/></g><path class="d" d="M6.06,5.88c.8,0,1.63-.26,1.63-1.16a1,1,0,0,0-1.15-1,1.31,1.31,0,0,0-1.22,1.5H4.13a2.39,2.39,0,0,1,2.43-2.5,2.1,2.1,0,0,1,2.32,2,1.52,1.52,0,0,1-1,1.57v0A1.72,1.72,0,0,1,9.18,8.08a2.38,2.38,0,0,1-2.61,2.25A2.37,2.37,0,0,1,4,7.76h1.2A1.35,1.35,0,0,0,6.57,9.33,1.28,1.28,0,0,0,8,8C8,6.87,7,6.74,6.06,6.77Z"/></svg>