<svg xmlns="http://www.w3.org/2000/svg" width="13" height="13" viewBox="0 0 13 13"><defs><style>.a{fill:#ea68a2;}.b{opacity:0.5;}.c{fill:none;stroke:#231815;stroke-linejoin:round;stroke-width:1.5px;}.d{fill:#fff;}</style></defs><circle class="a" cx="6.5" cy="6.5" r="6.5"/><g class="b"><path class="c" d="M4.77,2.83h3.8V3.9H5.66L5.28,5.77l0,0a1.84,1.84,0,0,1,1.36-.55A2.23,2.23,0,0,1,9,7.69a2.5,2.5,0,0,1-2.54,2.64A2.32,2.32,0,0,1,3.84,8.09H5A1.26,1.26,0,0,0,6.4,9.33c1,0,1.36-.73,1.36-1.62a1.37,1.37,0,0,0-1.4-1.53,1.15,1.15,0,0,0-1.18.67H4Z"/></g><path class="d" d="M4.77,2.83h3.8V3.9H5.66L5.28,5.77l0,0a1.84,1.84,0,0,1,1.36-.55A2.23,2.23,0,0,1,9,7.69a2.5,2.5,0,0,1-2.54,2.64A2.32,2.32,0,0,1,3.84,8.09H5A1.26,1.26,0,0,0,6.4,9.33c1,0,1.36-.73,1.36-1.62a1.37,1.37,0,0,0-1.4-1.53,1.15,1.15,0,0,0-1.18.67H4Z"/></svg>