<svg xmlns="http://www.w3.org/2000/svg" width="13" height="13" viewBox="0 0 13 13"><defs><style>.a{fill:#8957a1;}.b{opacity:0.5;}.c{fill:none;stroke:#231815;stroke-linejoin:round;stroke-width:1.5px;}.d{fill:#fff;}</style></defs><circle class="a" cx="6.5" cy="6.5" r="6.5"/><g class="b"><path class="c" d="M7.7,4.69a1,1,0,0,0-1.07-1c-1.31,0-1.44,1.56-1.52,2.52l0,0a1.72,1.72,0,0,1,1.58-.87A2.27,2.27,0,0,1,9,7.82a2.38,2.38,0,0,1-2.44,2.51c-2.15,0-2.68-1.7-2.68-3.85,0-1.75.7-3.8,2.77-3.8a2.14,2.14,0,0,1,2.22,2ZM7.84,7.8A1.33,1.33,0,0,0,6.55,6.3,1.34,1.34,0,0,0,5.22,7.8,1.38,1.38,0,0,0,6.55,9.33,1.36,1.36,0,0,0,7.84,7.8Z"/></g><path class="d" d="M7.7,4.69a1,1,0,0,0-1.07-1c-1.31,0-1.44,1.56-1.52,2.52l0,0a1.72,1.72,0,0,1,1.58-.87A2.27,2.27,0,0,1,9,7.82a2.38,2.38,0,0,1-2.44,2.51c-2.15,0-2.68-1.7-2.68-3.85,0-1.75.7-3.8,2.77-3.8a2.14,2.14,0,0,1,2.22,2ZM7.84,7.8A1.33,1.33,0,0,0,6.55,6.3,1.34,1.34,0,0,0,5.22,7.8,1.38,1.38,0,0,0,6.55,9.33,1.36,1.36,0,0,0,7.84,7.8Z"/></svg>