<svg xmlns="http://www.w3.org/2000/svg" width="13" height="13" viewBox="0 0 13 13"><defs><style>.a{fill:#ae5da1;}.b{opacity:0.5;}.c{fill:none;stroke:#231815;stroke-linejoin:round;stroke-width:1.5px;}.d{fill:#fff;}</style></defs><circle class="a" cx="6.58" cy="6.5" r="6.5"/><g class="b"><path class="c" d="M4,8a1.74,1.74,0,0,1,1.34-1.8v0a1.53,1.53,0,0,1-1-1.51c0-1.26.82-2,2.29-2s2.29.75,2.29,2a1.53,1.53,0,0,1-1,1.51v0A1.74,1.74,0,0,1,9.18,8a2.34,2.34,0,0,1-2.6,2.31A2.33,2.33,0,0,1,4,8ZM8,8a1.27,1.27,0,0,0-1.4-1.29A1.27,1.27,0,0,0,5.19,8,1.29,1.29,0,0,0,6.58,9.38,1.3,1.3,0,0,0,8,8ZM5.43,4.75A1,1,0,0,0,6.58,5.83,1,1,0,0,0,7.74,4.75,1.08,1.08,0,0,0,6.58,3.63,1.07,1.07,0,0,0,5.43,4.75Z"/></g><path class="d" d="M4,8a1.74,1.74,0,0,1,1.34-1.8v0a1.53,1.53,0,0,1-1-1.51c0-1.26.82-2,2.29-2s2.29.75,2.29,2a1.53,1.53,0,0,1-1,1.51v0A1.74,1.74,0,0,1,9.18,8a2.34,2.34,0,0,1-2.6,2.31A2.33,2.33,0,0,1,4,8ZM8,8a1.27,1.27,0,0,0-1.4-1.29A1.27,1.27,0,0,0,5.19,8,1.29,1.29,0,0,0,6.58,9.38,1.3,1.3,0,0,0,8,8ZM5.43,4.75A1,1,0,0,0,6.58,5.83,1,1,0,0,0,7.74,4.75,1.08,1.08,0,0,0,6.58,3.63,1.07,1.07,0,0,0,5.43,4.75Z"/></svg>