<svg xmlns="http://www.w3.org/2000/svg" width="13" height="13" viewBox="0 0 13 13"><defs><style>.a{fill:#f8b551;}.b{opacity:0.5;}.c{fill:none;stroke:#231815;stroke-linejoin:round;stroke-width:1.5px;}.d{fill:#fff;}</style></defs><circle class="a" cx="6.5" cy="6.5" r="6.5"/><g class="b"><path class="c" d="M5.22,8.32a1,1,0,0,0,1.07,1c1.3,0,1.44-1.55,1.53-2.52l0,0a1.74,1.74,0,0,1-1.58.88A2.27,2.27,0,0,1,3.89,5.19,2.38,2.38,0,0,1,6.42,2.68C8.49,2.68,9,4.38,9,6.53c0,1.75-.7,3.8-2.77,3.8A2.13,2.13,0,0,1,4,8.32ZM5.09,5.18c0,.8.41,1.55,1.28,1.55A1.38,1.38,0,0,0,7.7,5.18a1.35,1.35,0,0,0-1.33-1.5C5.5,3.68,5.09,4.38,5.09,5.18Z"/></g><path class="d" d="M5.22,8.32a1,1,0,0,0,1.07,1c1.3,0,1.44-1.55,1.53-2.52l0,0a1.74,1.74,0,0,1-1.58.88A2.27,2.27,0,0,1,3.89,5.19,2.38,2.38,0,0,1,6.42,2.68C8.49,2.68,9,4.38,9,6.53c0,1.75-.7,3.8-2.77,3.8A2.13,2.13,0,0,1,4,8.32ZM5.09,5.18c0,.8.41,1.55,1.28,1.55A1.38,1.38,0,0,0,7.7,5.18a1.35,1.35,0,0,0-1.33-1.5C5.5,3.68,5.09,4.38,5.09,5.18Z"/></svg>