<svg xmlns="http://www.w3.org/2000/svg" width="13" height="13" viewBox="0 0 13 13"><defs><style>.a{fill:#f8d251;}.b{opacity:0.5;}.c{fill:none;stroke:#231815;stroke-linejoin:round;stroke-width:1.5px;}.d{fill:#fff;}</style></defs><circle class="a" cx="6.5" cy="6.5" r="6.5"/><g class="b"><path class="c" d="M3.85,2.71H7.49c1.34,0,2.22.61,2.22,1.86A1.63,1.63,0,0,1,8.64,6.16v0a1.78,1.78,0,0,1,1.41,1.94c0,1.17-.82,2.09-2.76,2.09H3.85ZM5.16,5.85H7.3a1,1,0,0,0,1.1-1c0-.76-.39-1-1.1-1H5.16Zm0,3.28H7.48A1.11,1.11,0,0,0,8.74,8c0-.75-.46-1.16-1.26-1.16H5.16Z"/></g><path class="d" d="M3.85,2.71H7.49c1.34,0,2.22.61,2.22,1.86A1.63,1.63,0,0,1,8.64,6.16v0a1.78,1.78,0,0,1,1.41,1.94c0,1.17-.82,2.09-2.76,2.09H3.85ZM5.16,5.85H7.3a1,1,0,0,0,1.1-1c0-.76-.39-1-1.1-1H5.16Zm0,3.28H7.48A1.11,1.11,0,0,0,8.74,8c0-.75-.46-1.16-1.26-1.16H5.16Z"/></svg>