<svg xmlns="http://www.w3.org/2000/svg" width="13" height="13" viewBox="0 0 13 13"><defs><style>.a{fill:#7fc169;}.b{opacity:0.5;}.c{fill:none;stroke:#231815;stroke-linejoin:round;stroke-width:1.5px;}.d{fill:#fff;}</style></defs><circle class="a" cx="6.58" cy="6.5" r="6.5"/><g class="b"><path class="c" d="M8.54,5.09A1.79,1.79,0,0,0,6.67,3.6C5.07,3.6,4.39,5,4.39,6.46s.68,2.85,2.28,2.85a1.92,1.92,0,0,0,1.91-2H9.86a3.07,3.07,0,0,1-3.19,3A3.62,3.62,0,0,1,3.08,6.46,3.64,3.64,0,0,1,6.67,2.53,2.92,2.92,0,0,1,9.85,5.09Z"/></g><path class="d" d="M8.54,5.09A1.79,1.79,0,0,0,6.67,3.6C5.07,3.6,4.39,5,4.39,6.46s.68,2.85,2.28,2.85a1.92,1.92,0,0,0,1.91-2H9.86a3.07,3.07,0,0,1-3.19,3A3.62,3.62,0,0,1,3.08,6.46,3.64,3.64,0,0,1,6.67,2.53,2.92,2.92,0,0,1,9.85,5.09Z"/></svg>