<svg xmlns="http://www.w3.org/2000/svg" width="13" height="13" viewBox="0 0 13 13"><defs><style>.a{fill:#fff;}</style></defs><path class="a" d="M6.52.49a5.75,5.75,0,0,1,2.87.77,6,6,0,0,1,2,1.8,5.83,5.83,0,0,1,.35,6.33,6.08,6.08,0,0,1-1.8,2,5.81,5.81,0,0,1-3.46,1.12,5.64,5.64,0,0,1-2.87-.77,6,6,0,0,1-2-1.8A5.87,5.87,0,0,1,.49,6.48,5.7,5.7,0,0,1,1.07,4a6.07,6.07,0,0,1,2.5-2.69A5.75,5.75,0,0,1,6.52.49Zm0,.88A4.82,4.82,0,0,0,4.13,2a5,5,0,0,0-1.74,1.5,5,5,0,0,0-1,3A4.85,4.85,0,0,0,2,8.87a5,5,0,0,0,1.5,1.74,5,5,0,0,0,3,1A4.78,4.78,0,0,0,8.86,11a5.07,5.07,0,0,0,1.75-1.5,4.94,4.94,0,0,0,.55-5.11A5.21,5.21,0,0,0,9,2.06,5,5,0,0,0,6.48,1.37Z"/></svg>