<svg xmlns="http://www.w3.org/2000/svg" width="13" height="13" viewBox="0 0 13 13"><defs><style>.a{fill:#448aca;}.b{opacity:0.5;}.c{fill:none;stroke:#231815;stroke-linejoin:round;stroke-width:1.5px;}.d{fill:#fff;}</style></defs><circle class="a" cx="6.58" cy="6.5" r="6.5"/><g class="b"><path class="c" d="M4,2.71H7.07c2.31,0,3.3,1.68,3.3,3.75s-1,3.75-3.3,3.75H4ZM5.27,9.13H6.56c2.06,0,2.5-1.16,2.5-2.67s-.44-2.68-2.5-2.68H5.27Z"/></g><path class="d" d="M4,2.71H7.07c2.31,0,3.3,1.68,3.3,3.75s-1,3.75-3.3,3.75H4ZM5.27,9.13H6.56c2.06,0,2.5-1.16,2.5-2.67s-.44-2.68-2.5-2.68H5.27Z"/></svg>