<svg xmlns="http://www.w3.org/2000/svg" width="13" height="13" viewBox="0 0 13 13"><defs><style>.a{fill:#fff;}</style></defs><path class="a" d="M6.52.49a5.75,5.75,0,0,1,2.87.77,6,6,0,0,1,2,1.8,5.83,5.83,0,0,1,.35,6.33,6.08,6.08,0,0,1-1.8,2,5.81,5.81,0,0,1-3.46,1.12,5.64,5.64,0,0,1-2.87-.77,6,6,0,0,1-2-1.8A5.87,5.87,0,0,1,.49,6.48,5.7,5.7,0,0,1,1.07,4a6.07,6.07,0,0,1,2.5-2.69A5.75,5.75,0,0,1,6.52.49Zm0,.82a5,5,0,0,0-2.28.55A5.28,5.28,0,0,0,2.42,3.33,5,5,0,0,0,1.31,6.52a4.94,4.94,0,0,0,.55,2.27,5.22,5.22,0,0,0,1.47,1.79,5,5,0,0,0,3.18,1.11,5.11,5.11,0,0,0,2.31-.56,5.24,5.24,0,0,0,1.8-1.5,5.1,5.1,0,0,0,.62-5.22A5.23,5.23,0,0,0,9.09,2,5.07,5.07,0,0,0,6.48,1.31Zm0,1.6a3.48,3.48,0,0,1,2,.63A3.43,3.43,0,0,1,9.58,4.68a3.51,3.51,0,0,1,0,3.71A3.6,3.6,0,0,1,6.48,10.1a3.36,3.36,0,0,1-1.65-.43,3.38,3.38,0,0,1-1.17-1,3.57,3.57,0,0,1-.75-2.2A3.47,3.47,0,0,1,4.2,3.76,3.43,3.43,0,0,1,6.52,2.91Zm0,.82A2.67,2.67,0,0,0,5.26,4a2.62,2.62,0,0,0-1,.85,2.72,2.72,0,0,0-.54,1.65A2.68,2.68,0,0,0,4.1,7.88,2.73,2.73,0,0,0,5,8.82a2.73,2.73,0,0,0,3,0A2.77,2.77,0,0,0,9.27,6.5,2.63,2.63,0,0,0,9,5.25,2.72,2.72,0,0,0,7.15,3.8,3,3,0,0,0,6.48,3.73Z"/></svg>