<svg xmlns="http://www.w3.org/2000/svg" width="13" height="13" viewBox="0 0 13 13"><defs><style>.a{fill:#00b7ee;}.b{opacity:0.5;}.c{fill:none;stroke:#231815;stroke-linejoin:round;stroke-width:1.5px;}.d{fill:#fff;}</style></defs><circle class="a" cx="6.58" cy="6.5" r="6.5"/><g class="b"><path class="c" d="M9.94,10.21H9.1l-.2-.89a2.71,2.71,0,0,1-2.26,1.06A3.62,3.62,0,0,1,3.05,6.46,3.64,3.64,0,0,1,6.64,2.53,3,3,0,0,1,9.85,5.09H8.57A1.79,1.79,0,0,0,6.64,3.6C5,3.6,4.36,5,4.36,6.46S5,9.31,6.64,9.31a1.9,1.9,0,0,0,2.1-2.06h-2v-1H9.94Z"/></g><path class="d" d="M9.94,10.21H9.1l-.2-.89a2.71,2.71,0,0,1-2.26,1.06A3.62,3.62,0,0,1,3.05,6.46,3.64,3.64,0,0,1,6.64,2.53,3,3,0,0,1,9.85,5.09H8.57A1.79,1.79,0,0,0,6.64,3.6C5,3.6,4.36,5,4.36,6.46S5,9.31,6.64,9.31a1.9,1.9,0,0,0,2.1-2.06h-2v-1H9.94Z"/></svg>