<svg xmlns="http://www.w3.org/2000/svg" width="13" height="13" viewBox="0 0 13 13"><defs><style>.a{fill:#1ebf32;}.b{opacity:0.5;}.c{fill:none;stroke:#231815;stroke-linejoin:round;stroke-width:1.5px;}.d{fill:#fff;}</style></defs><circle class="a" cx="6.42" cy="6.5" r="6.5"/><g class="b"><path class="c" d="M9.77,10.21H8.93l-.2-.89a2.69,2.69,0,0,1-2.26,1.06A3.62,3.62,0,0,1,2.88,6.46,3.64,3.64,0,0,1,6.47,2.53,3,3,0,0,1,9.69,5.09H8.41A1.81,1.81,0,0,0,6.47,3.6C4.87,3.6,4.2,5,4.2,6.46s.67,2.85,2.27,2.85a1.9,1.9,0,0,0,2.1-2.06h-2v-1H9.77Z"/></g><path class="d" d="M9.77,10.21H8.93l-.2-.89a2.69,2.69,0,0,1-2.26,1.06A3.62,3.62,0,0,1,2.88,6.46,3.64,3.64,0,0,1,6.47,2.53,3,3,0,0,1,9.69,5.09H8.41A1.81,1.81,0,0,0,6.47,3.6C4.87,3.6,4.2,5,4.2,6.46s.67,2.85,2.27,2.85a1.9,1.9,0,0,0,2.1-2.06h-2v-1H9.77Z"/></svg>