<svg xmlns="http://www.w3.org/2000/svg" width="13" height="13" viewBox="0 0 13 13"><defs><style>.a{fill:#d1c0a5;}.b{opacity:0.5;}.c{fill:none;stroke:#231815;stroke-linejoin:round;stroke-width:1.5px;}.d{fill:#fff;}</style></defs><circle class="a" cx="6.5" cy="6.5" r="6.5"/><g class="b"><path class="c" d="M8.41,7.79c0,1.3-.32,2.59-2.47,2.59A2.1,2.1,0,0,1,3.71,8v-.4H5V8c0,.85.23,1.34,1,1.34s1-.51,1-1.45V2.71H8.41Z"/></g><path class="d" d="M8.41,7.79c0,1.3-.32,2.59-2.47,2.59A2.1,2.1,0,0,1,3.71,8v-.4H5V8c0,.85.23,1.34,1,1.34s1-.51,1-1.45V2.71H8.41Z"/></svg>