<svg xmlns="http://www.w3.org/2000/svg" width="13" height="13" viewBox="0 0 13 13"><defs><style>.a{fill:#ec6877;}.b{opacity:0.5;}.c{fill:none;stroke:#231815;stroke-linejoin:round;stroke-width:1.3px;}.d{fill:#fff;}</style></defs><circle class="a" cx="6.42" cy="6.5" r="6.5"/><g class="b"><polygon class="c" points="3.27 3.35 2.25 3.35 2.25 9.78 5.76 9.78 5.76 8.92 3.27 8.92 3.27 3.35"/><polygon class="c" points="8.81 6.07 10.66 3.35 9.54 3.35 7.59 6.16 7.57 6.16 7.57 3.35 6.55 3.35 6.55 9.78 7.57 9.78 7.57 7.7 8.14 6.89 9.7 9.78 10.86 9.78 8.81 6.07"/></g><polygon class="d" points="3.27 3.35 2.25 3.35 2.25 9.78 5.76 9.78 5.76 8.92 3.27 8.92 3.27 3.35"/><polygon class="d" points="8.81 6.07 10.66 3.35 9.54 3.35 7.59 6.16 7.57 6.16 7.57 3.35 6.55 3.35 6.55 9.78 7.57 9.78 7.57 7.7 8.14 6.89 9.7 9.78 10.86 9.78 8.81 6.07"/></svg>