<svg xmlns="http://www.w3.org/2000/svg" width="13" height="13" viewBox="0 0 13 13"><defs><style>.a{fill:#4da1f6;}.b{opacity:0.5;}.c{fill:none;stroke:#231815;stroke-linejoin:round;stroke-width:1.3px;}.d{fill:#fff;}</style></defs><circle class="a" cx="6.42" cy="6.5" r="6.5"/><g class="b"><polygon class="c" points="3.66 3.35 2.64 3.35 2.64 9.78 6.15 9.78 6.15 8.92 3.66 8.92 3.66 3.35"/><path class="c" d="M9,3.36h-2V9.78H8V7.13h.9a1.75,1.75,0,0,0,1.89-1.9A1.65,1.65,0,0,0,9,3.36Zm-.28,3H8V4.13h.66c.82,0,1.1.42,1.1,1.12A1,1,0,0,1,8.69,6.35Z"/></g><polygon class="d" points="3.66 3.35 2.64 3.35 2.64 9.78 6.15 9.78 6.15 8.92 3.66 8.92 3.66 3.35"/><path class="d" d="M9,3.36h-2V9.78H8V7.13h.9a1.75,1.75,0,0,0,1.89-1.9A1.65,1.65,0,0,0,9,3.36Zm-.28,3H8V4.13h.66c.82,0,1.1.42,1.1,1.12A1,1,0,0,1,8.69,6.35Z"/></svg>