<svg xmlns="http://www.w3.org/2000/svg" width="13" height="13" viewBox="0 0 13 13"><defs><style>.a{fill:#ec6877;}.b{opacity:0.5;}.c{fill:none;stroke:#231815;stroke-linejoin:round;stroke-width:1.3px;}.d{fill:#fff;}</style></defs><circle class="a" cx="6.47" cy="6.5" r="6.5"/><g class="b"><polygon class="c" points="4.45 8.12 4.44 8.12 3.51 3.35 2.19 3.35 2.19 9.78 2.99 9.78 2.99 4.44 3.01 4.44 4.07 9.78 4.78 9.78 5.84 4.44 5.86 4.44 5.86 9.78 6.66 9.78 6.66 3.35 5.37 3.35 4.45 8.12"/><polygon class="c" points="9.4 6.07 10.92 3.35 10 3.35 8.4 6.16 8.39 6.16 8.39 3.35 7.54 3.35 7.54 9.78 8.39 9.78 8.39 7.7 8.85 6.89 10.13 9.78 11.08 9.78 9.4 6.07"/></g><polygon class="d" points="4.45 8.12 4.44 8.12 3.51 3.35 2.19 3.35 2.19 9.78 2.99 9.78 2.99 4.44 3.01 4.44 4.07 9.78 4.78 9.78 5.84 4.44 5.86 4.44 5.86 9.78 6.66 9.78 6.66 3.35 5.37 3.35 4.45 8.12"/><polygon class="d" points="9.4 6.07 10.92 3.35 10 3.35 8.4 6.16 8.39 6.16 8.39 3.35 7.54 3.35 7.54 9.78 8.39 9.78 8.39 7.7 8.85 6.89 10.13 9.78 11.08 9.78 9.4 6.07"/></svg>