<svg xmlns="http://www.w3.org/2000/svg" width="13" height="13" viewBox="0 0 13 13"><defs><style>.a{fill:#4da1f6;}.b{opacity:0.5;}.c{fill:none;stroke:#231815;stroke-linejoin:round;stroke-width:1.3px;}.d{fill:#fff;}</style></defs><circle class="a" cx="6.42" cy="6.5" r="6.5"/><g class="b"><polygon class="c" points="4.58 8.12 4.57 8.12 3.54 3.35 2.1 3.35 2.1 9.78 2.98 9.78 2.98 4.44 2.99 4.44 4.16 9.78 4.94 9.78 6.1 4.44 6.12 4.44 6.12 9.78 7 9.78 7 3.35 5.59 3.35 4.58 8.12"/><path class="c" d="M9.75,3.36H7.92V9.78h.92V7.13h.81a1.67,1.67,0,0,0,1.7-1.9C11.35,4.13,10.86,3.36,9.75,3.36Zm-.25,3H8.84V4.13h.6c.73,0,1,.42,1,1.12S10,6.35,9.5,6.35Z"/></g><polygon class="d" points="4.58 8.12 4.57 8.12 3.54 3.35 2.1 3.35 2.1 9.78 2.98 9.78 2.98 4.44 2.99 4.44 4.16 9.78 4.94 9.78 6.1 4.44 6.12 4.44 6.12 9.78 7 9.78 7 3.35 5.59 3.35 4.58 8.12"/><path class="d" d="M9.75,3.36H7.92V9.78h.92V7.13h.81a1.67,1.67,0,0,0,1.7-1.9C11.35,4.13,10.86,3.36,9.75,3.36Zm-.25,3H8.84V4.13h.6c.73,0,1,.42,1,1.12S10,6.35,9.5,6.35Z"/></svg>