<svg xmlns="http://www.w3.org/2000/svg" width="13" height="13" viewBox="0 0 13 13"><defs><style>.a{fill:#ea68a2;}.b{opacity:0.5;}.c{fill:none;stroke:#231815;stroke-linejoin:round;stroke-width:1.5px;}.d{fill:#fff;}</style></defs><circle class="a" cx="6.5" cy="6.5" r="6.5"/><g class="b"><path class="c" d="M10.09,6.46a3.6,3.6,0,1,1-7.18,0A3.64,3.64,0,0,1,6.5,2.53,3.64,3.64,0,0,1,10.09,6.46Zm-5.87,0c0,1.44.67,2.85,2.28,2.85S8.78,7.9,8.78,6.46,8.11,3.6,6.5,3.6,4.22,5,4.22,6.46Z"/></g><path class="d" d="M10.09,6.46a3.6,3.6,0,1,1-7.18,0A3.64,3.64,0,0,1,6.5,2.53,3.64,3.64,0,0,1,10.09,6.46Zm-5.87,0c0,1.44.67,2.85,2.28,2.85S8.78,7.9,8.78,6.46,8.11,3.6,6.5,3.6,4.22,5,4.22,6.46Z"/></svg>