<svg xmlns="http://www.w3.org/2000/svg" width="13" height="13" viewBox="0 0 13 13"><defs><style>.a{fill:#8957a1;}.b{opacity:0.5;}.c{fill:none;stroke:#231815;stroke-linejoin:round;stroke-width:1.5px;}.d{fill:#fff;}</style></defs><circle class="a" cx="6.5" cy="6.5" r="6.5"/><g class="b"><path class="c" d="M4,2.71H7.35C9.49,2.71,9.9,4.09,9.9,5s-.41,2.3-2.55,2.3h-2v2.88H4ZM5.35,6.26H7.27A1.2,1.2,0,0,0,8.58,5c0-1-.59-1.24-1.29-1.24H5.35Z"/></g><path class="d" d="M4,2.71H7.35C9.49,2.71,9.9,4.09,9.9,5s-.41,2.3-2.55,2.3h-2v2.88H4ZM5.35,6.26H7.27A1.2,1.2,0,0,0,8.58,5c0-1-.59-1.24-1.29-1.24H5.35Z"/></svg>