<svg xmlns="http://www.w3.org/2000/svg" width="13" height="13" viewBox="0 0 13 13"><defs><style>.a{fill:#4da1f6;}.b{opacity:0.5;}.c{fill:none;stroke:#231815;stroke-linejoin:round;stroke-width:1.5px;}.d{fill:#fff;}</style></defs><circle class="a" cx="6.5" cy="6.5" r="6.5"/><g class="b"><path class="c" d="M3.92,2.71H7.23C9.37,2.71,9.78,4.09,9.78,5s-.41,2.3-2.55,2.3h-2v2.88H3.92ZM5.23,6.26H7.15A1.2,1.2,0,0,0,8.47,5c0-1-.6-1.24-1.29-1.24H5.23Z"/></g><path class="d" d="M3.92,2.71H7.23C9.37,2.71,9.78,4.09,9.78,5s-.41,2.3-2.55,2.3h-2v2.88H3.92ZM5.23,6.26H7.15A1.2,1.2,0,0,0,8.47,5c0-1-.6-1.24-1.29-1.24H5.23Z"/></svg>