<svg xmlns="http://www.w3.org/2000/svg" width="13" height="13" viewBox="0 0 13 13"><defs><style>.a{fill:#00b7ee;}.b{opacity:0.5;}.c{fill:none;stroke:#231815;stroke-linejoin:round;stroke-width:1.5px;}.d{fill:#fff;}</style></defs><circle class="a" cx="6.58" cy="6.5" r="6.5"/><g class="b"><path class="c" d="M10.16,10.17l-.64.72-1.09-1a3.45,3.45,0,0,1-1.76.45A3.62,3.62,0,0,1,3.08,6.46,3.64,3.64,0,0,1,6.67,2.53a3.64,3.64,0,0,1,3.59,3.93A4,4,0,0,1,9.2,9.33ZM6.75,8.47l.63-.72.91.8a3.23,3.23,0,0,0,.65-2.09C8.94,5,8.27,3.6,6.67,3.6S4.39,5,4.39,6.46s.67,2.85,2.28,2.85a1.93,1.93,0,0,0,.84-.18Z"/></g><path class="d" d="M10.16,10.17l-.64.72-1.09-1a3.45,3.45,0,0,1-1.76.45A3.62,3.62,0,0,1,3.08,6.46,3.64,3.64,0,0,1,6.67,2.53a3.64,3.64,0,0,1,3.59,3.93A4,4,0,0,1,9.2,9.33ZM6.75,8.47l.63-.72.91.8a3.23,3.23,0,0,0,.65-2.09C8.94,5,8.27,3.6,6.67,3.6S4.39,5,4.39,6.46s.67,2.85,2.28,2.85a1.93,1.93,0,0,0,.84-.18Z"/></svg>