<svg xmlns="http://www.w3.org/2000/svg" width="13" height="13" viewBox="0 0 13 13"><defs><style>.a{fill:#ae5da1;}.b{opacity:0.5;}.c{fill:none;stroke:#231815;stroke-linejoin:round;stroke-width:1.5px;}.d{fill:#fff;}</style></defs><circle class="a" cx="6.58" cy="6.5" r="6.5"/><g class="b"><path class="c" d="M3.69,2.71H7.27c1.64,0,2.47.76,2.47,2A1.79,1.79,0,0,1,8.5,6.62v0c.46,0,1.12.41,1.12,1.58a3.37,3.37,0,0,0,.41,2H8.62a2.12,2.12,0,0,1-.2-1.11c0-1.37-.28-2-1.49-2H5v3.09H3.69ZM5,6.12H7.15c.84,0,1.28-.4,1.28-1.2,0-1-.62-1.14-1.3-1.14H5Z"/></g><path class="d" d="M3.69,2.71H7.27c1.64,0,2.47.76,2.47,2A1.79,1.79,0,0,1,8.5,6.62v0c.46,0,1.12.41,1.12,1.58a3.37,3.37,0,0,0,.41,2H8.62a2.12,2.12,0,0,1-.2-1.11c0-1.37-.28-2-1.49-2H5v3.09H3.69ZM5,6.12H7.15c.84,0,1.28-.4,1.28-1.2,0-1-.62-1.14-1.3-1.14H5Z"/></svg>