<svg xmlns="http://www.w3.org/2000/svg" width="13" height="13" viewBox="0 0 13 13"><defs><style>.a{fill:#f8b551;}.b{opacity:0.5;}.c{fill:none;stroke:#231815;stroke-linejoin:round;stroke-width:1.5px;}.d{fill:#fff;}</style></defs><circle class="a" cx="6.5" cy="6.5" r="6.5"/><g class="b"><path class="c" d="M4.76,7.71c0,1.14.85,1.6,1.9,1.6s1.58-.57,1.58-1.13a.9.9,0,0,0-.62-.93c-.53-.19-1.19-.33-2.23-.61a1.9,1.9,0,0,1-1.66-1.9c0-1.52,1.38-2.21,2.74-2.21,1.55,0,2.87.83,2.87,2.39H8C8,4,7.33,3.6,6.42,3.6c-.61,0-1.38.22-1.38,1,0,.53.36.81.89,1l2.16.58A2,2,0,0,1,9.55,8c0,1.68-1.5,2.35-3,2.35-1.71,0-3.09-.82-3.13-2.67Z"/></g><path class="d" d="M4.76,7.71c0,1.14.85,1.6,1.9,1.6s1.58-.57,1.58-1.13a.9.9,0,0,0-.62-.93c-.53-.19-1.19-.33-2.23-.61a1.9,1.9,0,0,1-1.66-1.9c0-1.52,1.38-2.21,2.74-2.21,1.55,0,2.87.83,2.87,2.39H8C8,4,7.33,3.6,6.42,3.6c-.61,0-1.38.22-1.38,1,0,.53.36.81.89,1l2.16.58A2,2,0,0,1,9.55,8c0,1.68-1.5,2.35-3,2.35-1.71,0-3.09-.82-3.13-2.67Z"/></svg>