<svg xmlns="http://www.w3.org/2000/svg" width="13" height="13" viewBox="0 0 13 13"><defs><style>.a{fill:#f9da02;}.b{opacity:0.5;}.c{fill:none;stroke:#231815;stroke-linejoin:round;stroke-width:1.3px;}.d{fill:#fff;}</style></defs><circle class="a" cx="6.5" cy="6.5" r="6.5"/><g class="b"><path class="c" d="M3.68,6.18,3.14,6c-.53-.2-.75-.42-.75-.85a.64.64,0,0,1,.68-.72c.5,0,.7.27.7.72v.11h.8V5.13c0-.52-.14-1.32-1.42-1.32A1.37,1.37,0,0,0,1.6,5.22a1.33,1.33,0,0,0,1,1.38l.55.19a.84.84,0,0,1,.71.89.71.71,0,0,1-.76.72c-.54,0-.82-.3-.82-.91V7.36H1.53v.12A1.37,1.37,0,0,0,3.05,9c1,0,1.65-.44,1.65-1.51A1.27,1.27,0,0,0,3.68,6.18Z"/><polygon class="c" points="6.08 6.64 7.87 6.64 7.87 5.97 6.08 5.97 6.08 4.58 7.99 4.58 7.99 3.91 5.28 3.91 5.28 8.91 8.04 8.91 8.04 8.23 6.08 8.23 6.08 6.64"/><polygon class="c" points="9.54 8.23 9.54 3.91 8.74 3.91 8.74 8.91 11.47 8.91 11.47 8.23 9.54 8.23"/></g><path class="d" d="M3.68,6.18,3.14,6c-.53-.2-.75-.42-.75-.85a.64.64,0,0,1,.68-.72c.5,0,.7.27.7.72v.11h.8V5.13c0-.52-.14-1.32-1.42-1.32A1.37,1.37,0,0,0,1.6,5.22a1.33,1.33,0,0,0,1,1.38l.55.19a.84.84,0,0,1,.71.89.71.71,0,0,1-.76.72c-.54,0-.82-.3-.82-.91V7.36H1.53v.12A1.37,1.37,0,0,0,3.05,9c1,0,1.65-.44,1.65-1.51A1.27,1.27,0,0,0,3.68,6.18Z"/><polygon class="d" points="6.08 6.64 7.87 6.64 7.87 5.97 6.08 5.97 6.08 4.58 7.99 4.58 7.99 3.91 5.28 3.91 5.28 8.91 8.04 8.91 8.04 8.23 6.08 8.23 6.08 6.64"/><polygon class="d" points="9.54 8.23 9.54 3.91 8.74 3.91 8.74 8.91 11.47 8.91 11.47 8.23 9.54 8.23"/></svg>