<svg xmlns="http://www.w3.org/2000/svg" width="13" height="13" viewBox="0 0 13 13"><defs><style>.a{fill:#ec6877;}.b{opacity:0.5;}.c{fill:none;stroke:#231815;stroke-linejoin:round;stroke-width:1.3px;}.d{fill:#fff;}</style></defs><circle class="a" cx="6.47" cy="6.5" r="6.5"/><g class="b"><path class="c" d="M4.71,6.27,4,6c-.68-.26-1-.54-1-1.09A.82.82,0,0,1,3.91,4c.65,0,.9.35.9.93v.14h1V4.92c0-.66-.17-1.69-1.82-1.69A1.77,1.77,0,0,0,2,5.05,1.71,1.71,0,0,0,3.36,6.81l.71.25A1.07,1.07,0,0,1,5,8.2a.91.91,0,0,1-1,.93Q3,9.13,3,8V7.79h-1V8a1.76,1.76,0,0,0,2,2C5.18,9.91,6,9.34,6,8A1.64,1.64,0,0,0,4.71,6.27Z"/><polygon class="c" points="8.96 6.07 10.81 3.35 9.69 3.35 7.74 6.16 7.72 6.16 7.72 3.35 6.7 3.35 6.7 9.78 7.72 9.78 7.72 7.7 8.29 6.89 9.85 9.78 11.01 9.78 8.96 6.07"/></g><path class="d" d="M4.71,6.27,4,6c-.68-.26-1-.54-1-1.09A.82.82,0,0,1,3.91,4c.65,0,.9.35.9.93v.14h1V4.92c0-.66-.17-1.69-1.82-1.69A1.77,1.77,0,0,0,2,5.05,1.71,1.71,0,0,0,3.36,6.81l.71.25A1.07,1.07,0,0,1,5,8.2a.91.91,0,0,1-1,.93Q3,9.13,3,8V7.79h-1V8a1.76,1.76,0,0,0,2,2C5.18,9.91,6,9.34,6,8A1.64,1.64,0,0,0,4.71,6.27Z"/><polygon class="d" points="8.96 6.07 10.81 3.35 9.69 3.35 7.74 6.16 7.72 6.16 7.72 3.35 6.7 3.35 6.7 9.78 7.72 9.78 7.72 7.7 8.29 6.89 9.85 9.78 11.01 9.78 8.96 6.07"/></svg>