<svg xmlns="http://www.w3.org/2000/svg" width="13" height="13" viewBox="0 0 13 13"><defs><style>.a{fill:#4da1f6;}.b{opacity:0.5;}.c{fill:none;stroke:#231815;stroke-linejoin:round;stroke-width:1.3px;}.d{fill:#fff;}</style></defs><circle class="a" cx="6.42" cy="6.5" r="6.5"/><g class="b"><path class="c" d="M5,6.27,4.34,6c-.68-.26-1-.54-1-1.09A.82.82,0,0,1,4.24,4c.65,0,.9.35.9.93v.14h1V4.92c0-.66-.17-1.69-1.82-1.69a1.77,1.77,0,0,0-2,1.82A1.71,1.71,0,0,0,3.69,6.81l.7.25A1.07,1.07,0,0,1,5.31,8.2a.91.91,0,0,1-1,.93q-1,0-1-1.17V7.79h-1V8a1.76,1.76,0,0,0,2,2c1.29,0,2.12-.57,2.12-1.94A1.64,1.64,0,0,0,5,6.27Z"/><path class="c" d="M9.31,3.36h-2V9.78h1V7.13h.9a1.75,1.75,0,0,0,1.89-1.9A1.65,1.65,0,0,0,9.31,3.36ZM9,6.35H8.3V4.13H9c.82,0,1.1.42,1.1,1.12A1,1,0,0,1,9,6.35Z"/></g><path class="d" d="M5,6.27,4.34,6c-.68-.26-1-.54-1-1.09A.82.82,0,0,1,4.24,4c.65,0,.9.35.9.93v.14h1V4.92c0-.66-.17-1.69-1.82-1.69a1.77,1.77,0,0,0-2,1.82A1.71,1.71,0,0,0,3.69,6.81l.7.25A1.07,1.07,0,0,1,5.31,8.2a.91.91,0,0,1-1,.93q-1,0-1-1.17V7.79h-1V8a1.76,1.76,0,0,0,2,2c1.29,0,2.12-.57,2.12-1.94A1.64,1.64,0,0,0,5,6.27Z"/><path class="d" d="M9.31,3.36h-2V9.78h1V7.13h.9a1.75,1.75,0,0,0,1.89-1.9A1.65,1.65,0,0,0,9.31,3.36ZM9,6.35H8.3V4.13H9c.82,0,1.1.42,1.1,1.12A1,1,0,0,1,9,6.35Z"/></svg>