<svg xmlns="http://www.w3.org/2000/svg" width="13" height="13" viewBox="0 0 13 13"><defs><style>.a{fill:#f9da02;}.b{opacity:0.5;}.c{fill:none;stroke:#231815;stroke-linejoin:round;stroke-width:1.3px;}.d{fill:#fff;}</style></defs><circle class="a" cx="6.5" cy="6.5" r="6.5"/><g class="b"><path class="c" d="M3.63,6.18,3.09,6c-.54-.2-.75-.42-.75-.85A.64.64,0,0,1,3,4.41c.5,0,.7.27.7.72v.11h.8V5.13c0-.52-.13-1.32-1.42-1.32A1.37,1.37,0,0,0,1.54,5.22a1.33,1.33,0,0,0,1,1.38l.55.19a.83.83,0,0,1,.71.89.71.71,0,0,1-.75.72c-.55,0-.82-.3-.82-.91V7.36h-.8v.12A1.37,1.37,0,0,0,3,9C4,9,4.64,8.57,4.64,7.5A1.27,1.27,0,0,0,3.63,6.18Z"/><polygon class="c" points="8.11 3.91 4.95 3.91 4.95 4.58 6.14 4.58 6.14 8.91 6.94 8.91 6.94 4.58 8.11 4.58 8.11 3.91"/><path class="c" d="M10.26,3.91h-1l-1.42,5h.83L9,7.68h1.47l.31,1.23h.83ZM9.12,7l.59-2.46h0L10.3,7Z"/></g><path class="d" d="M3.63,6.18,3.09,6c-.54-.2-.75-.42-.75-.85A.64.64,0,0,1,3,4.41c.5,0,.7.27.7.72v.11h.8V5.13c0-.52-.13-1.32-1.42-1.32A1.37,1.37,0,0,0,1.54,5.22a1.33,1.33,0,0,0,1,1.38l.55.19a.83.83,0,0,1,.71.89.71.71,0,0,1-.75.72c-.55,0-.82-.3-.82-.91V7.36h-.8v.12A1.37,1.37,0,0,0,3,9C4,9,4.64,8.57,4.64,7.5A1.27,1.27,0,0,0,3.63,6.18Z"/><polygon class="d" points="8.11 3.91 4.95 3.91 4.95 4.58 6.14 4.58 6.14 8.91 6.94 8.91 6.94 4.58 8.11 4.58 8.11 3.91"/><path class="d" d="M10.26,3.91h-1l-1.42,5h.83L9,7.68h1.47l.31,1.23h.83ZM9.12,7l.59-2.46h0L10.3,7Z"/></svg>