<svg xmlns="http://www.w3.org/2000/svg" width="16" height="16" viewBox="0 0 16 16"><defs><style>.a{fill:#f4c51d;}.b{fill:#eab818;}.c{fill:#4c4c4c;}.d{fill:#b78006;}.e{fill:#eaa410;}.f{fill:#fff;}.g{fill:#ddd;}</style></defs><path class="a" d="M14.6,0H13V.5H9.5V0h-3V.5H3V0H1.4A.4.4,0,0,0,1,.4V15.6a.4.4,0,0,0,.4.4H14.6a.4.4,0,0,0,.4-.4V.4A.4.4,0,0,0,14.6,0ZM8,8.5A.5.5,0,1,1,8.5,8,.5.5,0,0,1,8,8.5Z"/><path class="b" d="M9.5.5V0h-3V.5H5.25V8a2.75,2.75,0,0,0,5.5,0V.5ZM8,8.5A.5.5,0,1,1,8.5,8,.5.5,0,0,1,8,8.5Z"/><rect class="c" x="7.25" y="1" width="1.5" height="5"/><path class="c" d="M8,6.5A1.5,1.5,0,1,0,9.5,8,1.5,1.5,0,0,0,8,6.5Zm0,2A.5.5,0,1,1,8.5,8,.5.5,0,0,1,8,8.5Z"/><rect class="d" x="13.5" y="1" width="1" height="1.5"/><rect class="d" x="1.5" y="1" width="1" height="1.5"/><rect class="e" x="1.25" y="13.25" width="1" height="1.5" transform="translate(15.75 12.25) rotate(90)"/><rect class="e" x="13.75" y="13.25" width="1" height="1.5" transform="translate(28.25 -0.25) rotate(90)"/><rect class="f" x="3" y="11" width="10" height="3.5" rx="0.5"/><path class="g" d="M8,6.75A1.25,1.25,0,1,0,9.25,8,1.25,1.25,0,0,0,8,6.75ZM8,8.5A.5.5,0,1,1,8.5,8,.5.5,0,0,1,8,8.5Z"/><rect class="e" x="2" y="15" width="12" height="1"/></svg>