<svg xmlns="http://www.w3.org/2000/svg" width="16" height="16" viewBox="0 0 16 16"><defs><style>.a{fill:#fff;stroke-miterlimit:10;}.a,.b{stroke:#a5746d;stroke-width:0.98px;}.b{fill:none;stroke-linejoin:round;}.c{fill:#a0615a;}.d{fill:#99251c;}</style></defs><path class="a" d="M2.11,1V15.06a.45.45,0,0,0,.45.45H13.44a.45.45,0,0,0,.45-.45V4a.46.46,0,0,0-.13-.32l-3-3a.47.47,0,0,0-.33-.14H2.56A.46.46,0,0,0,2.11,1Z"/><polyline class="b" points="10.64 0.51 10.64 3.76 13.89 3.76"/><path class="c" d="M8.81,4.93a.2.2,0,0,0-.19.14.63.63,0,0,1-1.24,0,.2.2,0,0,0-.19-.14H5.8a.19.19,0,0,0-.19.19v7.34a.19.19,0,0,0,.19.19h4.4a.19.19,0,0,0,.19-.19V5.12a.19.19,0,0,0-.19-.19Z"/><rect class="c" x="4.12" y="5.96" width="1.2" height="0.96"/><rect class="c" x="4.12" y="7.68" width="1.2" height="0.96"/><rect class="c" x="4.12" y="9.4" width="1.2" height="0.96"/><rect class="c" x="4.12" y="11.12" width="1.2" height="0.96"/><rect class="c" x="10.68" y="5.96" width="1.2" height="0.96"/><rect class="c" x="10.68" y="7.68" width="1.2" height="0.96"/><rect class="c" x="10.68" y="9.4" width="1.2" height="0.96"/><rect class="c" x="10.68" y="11.12" width="1.2" height="0.96"/><rect class="d" x="-2" y="7.44" width="20" height="1.5" transform="translate(-3.44 8.05) rotate(-45)"/></svg>