<svg xmlns="http://www.w3.org/2000/svg" xmlns:xlink="http://www.w3.org/1999/xlink" width="16" height="16" viewBox="0 0 16 16"><defs><style>.a{fill:none;}.b{fill:#626168;}.c{fill:#babbc4;}.d{fill:#333;}.e{fill:#78777e;}.f{fill:#1a1a1a;}.g{clip-path:url(#a);}.h{fill:#cc8408;}.i{fill:#ae3939;}.j{fill:#0939a6;}.k{fill:#b7c3a3;}.l{fill:#29923f;}.m{fill:#c23626;}.n{fill:#fff;opacity:0.63;}</style><clipPath id="a"><rect class="a" x="2.63" y="1.79" width="10.73" height="9.17" rx="0.38"/></clipPath></defs><rect class="b" y="0.61" width="16" height="14.78" rx="0.89"/><path d="M0,13.16H16a0,0,0,0,1,0,0V14.5a.89.89,0,0,1-.89.89H.89A.89.89,0,0,1,0,14.5V13.16A0,0,0,0,1,0,13.16Z"/><path class="c" d="M8.1,8.3,15.72.86a.86.86,0,0,0-.61-.25H.89a.91.91,0,0,0-.6.23Z"/><path class="c" d="M8.1,8.3,15.72.86a.86.86,0,0,0-.61-.25H.89a.91.91,0,0,0-.6.23Z"/><path class="d" d="M7.91,7.7.29,15.14a.87.87,0,0,0,.62.25H15.12a.91.91,0,0,0,.6-.23Z"/><rect class="e" x="0.42" y="1.01" width="15.17" height="13.97" rx="0.6"/><path class="f" d="M.42,13.16H15.58a0,0,0,0,1,0,0v1.22a.6.6,0,0,1-.6.6H1a.6.6,0,0,1-.6-.6V13.16A0,0,0,0,1,.42,13.16Z"/><rect class="b" x="13.97" y="1.01" width="0.2" height="12.15"/><rect class="b" x="1.82" y="1.01" width="0.2" height="12.15"/><g class="g"><polygon points="4.52 9.01 2.63 10.97 2.63 1.79 4.52 1.79 4.52 9.01"/><polygon class="h" points="13.37 10.97 2.63 10.97 4.52 9.01 13.37 9.01 13.37 10.97"/><rect class="i" x="3.2" y="2.57" width="1.13" height="4.29"/><rect class="j" x="4.52" y="1.79" width="8.85" height="7.22"/><polygon class="k" points="4.52 9.01 4.52 5.7 9.22 4.13 11.11 6.67 13.37 5.5 13.37 9.01 4.52 9.01"/><rect class="l" x="4.89" y="8.43" width="7.91" height="1.37"/><ellipse class="m" cx="10.26" cy="6.18" rx="2.04" ry="1.61" transform="translate(0.39 12.98) rotate(-65.64)"/><ellipse class="m" cx="8.66" cy="3.35" rx="0.56" ry="0.98"/><ellipse class="l" cx="7.25" cy="6.57" rx="1.05" ry="0.87" transform="translate(-2.51 5.9) rotate(-38.26)"/><rect class="n" x="10.54" y="2.18" width="2.26" height="0.59" rx="0.29"/></g><path class="b" d="M7.88,11.75h.85a.1.1,0,0,1,.09.15l-.43.71a.1.1,0,0,1-.17,0l-.43-.71A.1.1,0,0,1,7.88,11.75Z"/></svg>