<svg xmlns="http://www.w3.org/2000/svg" xmlns:xlink="http://www.w3.org/1999/xlink" width="20" height="20" viewBox="0 0 20 20"><defs><style>.a{fill:#bfc1c1;}.b{fill:url(#a);}.c{fill:#6b7072;}.d{fill:#a8acad;}.e{fill:#fff;}.f{opacity:0.46;}.g{fill:url(#b);}</style><linearGradient id="a" x1="12.02" y1="5.21" x2="11.98" y2="17.87" gradientUnits="userSpaceOnUse"><stop offset="0" stop-color="#f7f7f7"/><stop offset="1" stop-color="#dcdcdc"/></linearGradient><linearGradient id="b" x1="8.02" y1="2.21" x2="7.98" y2="14.87" xlink:href="#a"/></defs><polygon class="a" points="6 19 6 4 15.41 4 18 6.59 18 19 6 19"/><polygon class="b" points="7 5 7 18 17 18 17 7 15 5 7 5"/><rect class="c" x="10" y="7" width="4" height="9" rx="0.61"/><rect class="d" x="9" y="8" width="1" height="1"/><rect class="d" x="9" y="10" width="1" height="1"/><rect class="d" x="9" y="14" width="1" height="1"/><rect class="d" x="14" y="14" width="1" height="1"/><rect class="d" x="14" y="12" width="1" height="1"/><rect class="d" x="14" y="10" width="1" height="1"/><rect class="d" x="14" y="8" width="1" height="1"/><rect class="d" x="9" y="12" width="1" height="1"/><polygon class="e" points="18 8 15 5 15 8 18 8"/><polygon class="a" points="15 7 15 4 14 4 14 8 18 8 18 7 15 7"/><polygon class="f" points="18 7.29 18 19 7 19 7 20 19 20 19 8.21 18 7.29"/><polygon class="a" points="2 16 2 1 11.41 1 14 3.59 14 16 2 16"/><polygon class="g" points="3 2 3 15 13 15 13 4 11 2 3 2"/><rect class="c" x="6" y="4" width="4" height="9" rx="0.61"/><rect class="d" x="5" y="5" width="1" height="1"/><rect class="d" x="5" y="7" width="1" height="1"/><rect class="d" x="5" y="11" width="1" height="1"/><rect class="d" x="10" y="11" width="1" height="1"/><rect class="d" x="10" y="9" width="1" height="1"/><rect class="d" x="10" y="7" width="1" height="1"/><rect class="d" x="10" y="5" width="1" height="1"/><rect class="d" x="5" y="9" width="1" height="1"/><polygon class="e" points="14 5 11 2 11 5 14 5"/><polygon class="a" points="11 4 11 1 10 1 10 5 14 5 14 4 11 4"/><polygon class="f" points="14 4.29 14 16 3 16 3 17 15 17 15 5.21 14 4.29"/></svg>