<svg xmlns="http://www.w3.org/2000/svg" width="16" height="16" viewBox="0 0 16 16"><defs><style>.a{fill:#fff;}.b{fill:#d80000;}</style></defs><path class="a" d="M12.68,2.14H5.07a.18.18,0,0,0-.19.19v.81h5.8a1.19,1.19,0,0,1,1.2,1.19v7.81h.8a.2.2,0,0,0,.2-.19V2.33A.19.19,0,0,0,12.68,2.14Z"/><path class="a" d="M10.68,4.14H3.07a.18.18,0,0,0-.19.19V14a.19.19,0,0,0,.19.19h7.61a.2.2,0,0,0,.2-.19V4.33A.19.19,0,0,0,10.68,4.14Z"/><rect class="b" x="-0.48" y="7.64" width="16.71" height="1" transform="translate(-3.45 7.95) rotate(-45)"/></svg>