<svg xmlns="http://www.w3.org/2000/svg" width="16" height="16" viewBox="0 0 16 16"><defs><style>.a{fill:#6b4500;}.b{fill:#ddd;}.c{fill:#515151;}.d{fill:#fff;}.e{fill:#fa0;}.f{fill:#606060;}.g{fill:#282828;}.h{fill:#f9f9f9;}</style></defs><path class="a" d="M4.5,5.1A2.4,2.4,0,1,0,6.9,7.5,2.41,2.41,0,0,0,4.5,5.1Zm0,3.23a.83.83,0,1,1,.83-.83A.83.83,0,0,1,4.5,8.33Z"/><rect class="b" x="4.37" y="6.75" width="0.26" height="0.22"/><rect class="b" x="4.37" y="8.03" width="0.26" height="0.22"/><rect class="b" x="3.81" y="7.07" width="0.26" height="0.22" transform="translate(-4.25 7.01) rotate(-60)"/><rect class="b" x="4.92" y="7.71" width="0.26" height="0.22" transform="translate(-4.25 8.29) rotate(-60)"/><rect class="b" x="3.81" y="7.71" width="0.26" height="0.22" transform="translate(-0.85 15.15) rotate(-120)"/><rect class="b" x="4.92" y="7.07" width="0.26" height="0.22" transform="translate(1.36 15.15) rotate(-120)"/><rect class="b" x="11.37" y="6.75" width="0.26" height="0.22"/><rect class="b" x="11.37" y="8.03" width="0.26" height="0.22"/><rect class="b" x="10.81" y="7.07" width="0.26" height="0.22" transform="translate(-0.75 13.07) rotate(-60)"/><rect class="b" x="11.92" y="7.71" width="0.26" height="0.22" transform="translate(-0.75 14.35) rotate(-60)"/><rect class="b" x="10.81" y="7.71" width="0.26" height="0.22" transform="translate(9.65 21.21) rotate(-120)"/><rect class="b" x="11.92" y="7.07" width="0.26" height="0.22" transform="translate(11.86 21.21) rotate(-120)"/><path class="b" d="M4.5,6A1.5,1.5,0,1,0,6,7.5,1.5,1.5,0,0,0,4.5,6Zm0,2.25a.75.75,0,1,1,.75-.75A.76.76,0,0,1,4.5,8.25Z"/><path class="b" d="M11.5,6A1.5,1.5,0,1,0,13,7.5,1.5,1.5,0,0,0,11.5,6Zm0,2.25a.75.75,0,1,1,.75-.75A.76.76,0,0,1,11.5,8.25Z"/><path class="c" d="M15.59,3H.41A.41.41,0,0,0,0,3.41v9.18A.41.41,0,0,0,.41,13H15.59a.41.41,0,0,0,.41-.41V3.41A.41.41,0,0,0,15.59,3ZM4.5,8.25a.75.75,0,1,1,.75-.75A.76.76,0,0,1,4.5,8.25Zm5.75,0H5.75V6.75h4.5Zm1.25,0a.75.75,0,1,1,.75-.75A.76.76,0,0,1,11.5,8.25Z"/><path class="d" d="M14.8,4H1.2a.2.2,0,0,0-.2.2V9.8a.2.2,0,0,0,.2.2H14.8a.2.2,0,0,0,.2-.2V4.2A.2.2,0,0,0,14.8,4ZM4.5,8.25a.75.75,0,1,1,.75-.75A.76.76,0,0,1,4.5,8.25Zm5.75,0H5.75V6.75h4.5Zm1.25,0a.75.75,0,1,1,.75-.75A.76.76,0,0,1,11.5,8.25Z"/><path class="e" d="M15,6H1v4H15ZM4.5,8.25a.75.75,0,1,1,.75-.75A.76.76,0,0,1,4.5,8.25Zm5.75,0H5.75V6.75h4.5Zm1.25,0a.75.75,0,1,1,.75-.75A.76.76,0,0,1,11.5,8.25Z"/><path class="f" d="M13.25,13H2.75l.49-2.23a.34.34,0,0,1,.33-.27h8.6a.4.4,0,0,1,.37.27Z"/><circle class="g" cx="0.6" cy="3.6" r="0.3"/><circle class="g" cx="15.4" cy="3.6" r="0.3"/><circle class="g" cx="0.6" cy="12.4" r="0.3"/><circle class="h" cx="4.5" cy="12.3" r="0.3"/><circle class="h" cx="5.7" cy="12.1" r="0.3"/><circle class="h" cx="11.5" cy="12.3" r="0.3"/><circle class="h" cx="10.3" cy="12.1" r="0.3"/><circle class="g" cx="15.4" cy="12.4" r="0.3"/><path class="c" d="M12.41,6.38H3.59a.21.21,0,0,0-.21.21V8.41a.21.21,0,0,0,.21.21h8.82a.21.21,0,0,0,.21-.21V6.59A.21.21,0,0,0,12.41,6.38ZM4.5,8.25a.75.75,0,1,1,.75-.75A.76.76,0,0,1,4.5,8.25Zm5.75,0H5.75V6.75h4.5Zm1.25,0a.75.75,0,1,1,.75-.75A.76.76,0,0,1,11.5,8.25Z"/><rect class="g" x="13.25" y="4.46" width="1.12" height="1.12"/></svg>