<svg xmlns="http://www.w3.org/2000/svg" width="16" height="16" viewBox="0 0 16 16"><defs><style>.a{fill:#e89b00;}.b{fill:#ffd02a;}.c{fill:#f9b401;}.d{fill:#ddd;}.e{fill:#515151;}.f{fill:#0296ec;}.g{fill:#848484;}.h{fill:#39b378;}</style></defs><path class="a" d="M.31,3h15.4a.29.29,0,0,1,.29.29V12a0,0,0,0,1,0,0H0a0,0,0,0,1,0,0V3.31A.31.31,0,0,1,.31,3Z"/><path class="b" d="M15.88,3.07,8,12h8V3.29A.27.27,0,0,0,15.88,3.07Z"/><path class="c" d="M15.3,3.5H.72a.22.22,0,0,0-.22.22V12H1v1.5H15V12h.5V3.7A.2.2,0,0,0,15.3,3.5Z"/><rect class="d" x="1" y="4" width="14" height="6.5"/><rect class="e" x="1" y="4" width="3" height="1"/><rect class="f" x="6.5" y="5" width="8" height="5"/><rect class="g" x="1.5" y="6.1" width="4.5" height="0.8"/><rect class="g" x="2" y="9.1" width="4" height="0.8"/><rect class="g" x="6.5" y="4.25" width="6.5" height="0.5"/><rect class="h" x="6.5" y="8" width="8" height="2"/></svg>