<svg xmlns="http://www.w3.org/2000/svg" xmlns:xlink="http://www.w3.org/1999/xlink" width="16" height="16" viewBox="0 0 16 16"><defs><style>.a{fill:url(#a);}.b{fill:#78777e;}.c{fill:#fc0;}.d{fill:#5b5a60;}.e{fill:#a0a0a3;}.f{fill:#1a1a1a;}.g{fill:#5e5e5e;}.h{fill:#f7c500;}.i{fill:#73b94d;}.j{fill:#00b0ef;}.k{fill:#ed2627;}.l{fill:#953e23;}.m{fill:#1ea243;}.n{fill:#033473;}.o{fill:#f59930;}</style><linearGradient id="a" y1="8" x2="16" y2="8" gradientUnits="userSpaceOnUse"><stop offset="0" stop-color="#a0a0a3"/><stop offset="0.05" stop-color="#aaaab0"/><stop offset="0.12" stop-color="#b3b4bb"/><stop offset="0.23" stop-color="#b9b9c2"/><stop offset="0.52" stop-color="#babbc4"/><stop offset="0.79" stop-color="#b9b9c2"/><stop offset="0.89" stop-color="#b3b4bb"/><stop offset="0.96" stop-color="#aaaab0"/><stop offset="1" stop-color="#a0a0a3"/></linearGradient></defs><rect class="a" y="2.5" width="16" height="11" rx="0.4"/><rect class="b" x="15.5" y="3.5" width="0.5" height="2"/><rect class="b" y="3.5" width="0.5" height="2"/><rect class="b" x="2.45" y="2.5" width="0.1" height="11"/><rect class="b" x="13.45" y="2.5" width="0.1" height="11"/><rect class="c" x="1.5" y="3.25" width="13" height="4.5" rx="0.3"/><circle class="d" cx="1" cy="12.5" r="0.38"/><circle class="d" cx="15" cy="12.5" r="0.38"/><rect class="e" x="3.5" y="9.5" width="9" height="0.75" rx="0.37"/><rect class="b" x="6.25" y="9.5" width="3.5" height="0.75"/><rect class="f" x="2" y="3.66" width="1.1" height="0.84"/><rect class="g" x="3.37" y="4.1" width="3.79" height="0.4"/><rect class="g" x="3.37" y="3.66" width="2.26" height="0.32"/><rect class="g" x="1.93" y="7.06" width="5.82" height="0.28"/><ellipse class="h" cx="2.57" cy="4.28" rx="0.18" ry="0.09"/><ellipse class="i" cx="2.25" cy="4.13" rx="0.18" ry="0.09"/><circle class="j" cx="2.46" cy="3.9" r="0.16"/><circle class="k" cx="2.77" cy="4.07" r="0.16"/><rect class="l" x="8.98" y="4.13" width="4.57" height="2.85"/><ellipse class="m" cx="11.48" cy="6.01" rx="0.37" ry="1.02" transform="translate(-1.39 4.51) rotate(-20.97)"/><ellipse class="n" cx="9.1" cy="6.6" rx="0.31" ry="0.6"/><ellipse class="o" cx="8.98" cy="4.43" rx="0.85" ry="0.38" transform="matrix(0.56, -0.83, 0.83, 0.56, 0.31, 9.43)"/><rect class="n" x="2" y="5.26" width="5.69" height="1.15"/></svg>