<svg xmlns="http://www.w3.org/2000/svg" width="16" height="16" viewBox="0 0 16 16"><defs><style>.a{fill:#e6e6e6;}.b{fill:#333;}.c{fill:#34343b;}.d{fill:#f2cd79;}.e{fill:#f2f2f2;}.f{fill:#aeb0b0;}.g{fill:#3f95ba;}.h{fill:#e82100;}.i{fill:#3d499e;}.j{fill:#2cb778;}</style></defs><rect class="a" x="3.34" width="9.96" height="16" rx="0.55"/><path class="b" d="M3.64.3H13a0,0,0,0,1,0,0V4.68a.45.45,0,0,1-.45.45H4.09a.45.45,0,0,1-.45-.45V.3A0,0,0,0,1,3.64.3Z"/><rect class="c" x="3.94" y="5.74" width="8.75" height="9.06"/><rect class="d" x="3.94" y="0.3" width="8.75" height="0.91"/><rect class="e" x="4.25" y="6.04" width="1.51" height="0.91"/><ellipse class="f" cx="7.66" cy="10.39" rx="2.91" ry="1.86" transform="translate(-4.44 5.89) rotate(-33.22)"/><ellipse class="f" cx="8.56" cy="7.38" rx="1.34" ry="0.77" transform="translate(-2.64 5.89) rotate(-33.22)"/><ellipse class="f" cx="10.98" cy="9.49" rx="1.34" ry="0.77" transform="translate(-3.4 7.56) rotate(-33.22)"/><ellipse class="g" cx="6.66" cy="11.02" rx="1.66" ry="1.21" transform="translate(-4.95 5.45) rotate(-33.22)"/><polygon class="h" points="9.07 9.96 11.79 9.96 10.59 13.89 9.07 9.96"/><rect class="i" x="8.77" y="10.57" width="3.32" height="1.21"/><ellipse class="j" cx="5.04" cy="11.11" rx="0.97" ry="0.74" transform="translate(-5.26 4.58) rotate(-33.22)"/><ellipse class="j" cx="6.85" cy="12.62" rx="0.97" ry="0.74" transform="matrix(0.84, -0.55, 0.55, 0.84, -5.79, 5.82)"/></svg>