<svg xmlns="http://www.w3.org/2000/svg" xmlns:xlink="http://www.w3.org/1999/xlink" width="16" height="16" viewBox="0 0 16 16"><defs><style>.a{fill:url(#a);}.b{fill:#78777e;}.c{fill:#fff;}.d{fill:url(#b);}.e{fill:url(#c);}.f{fill:#80b4dd;}.g{fill:gray;}.h{fill:none;stroke:gray;stroke-miterlimit:10;stroke-width:0.08px;}.i{fill:#c13c32;}.j{fill:#d2b062;}.k{fill:#493891;}.l{fill:#4f69bb;}.m{fill:#e2b842;}.n{fill:#75a559;}</style><linearGradient id="a" y1="7.89" x2="16" y2="7.89" gradientUnits="userSpaceOnUse"><stop offset="0" stop-color="#78777e"/><stop offset="0.08" stop-color="#babbc4"/><stop offset="0.92" stop-color="#babbc4"/><stop offset="1" stop-color="#78777e"/></linearGradient><linearGradient id="b" y1="11.59" x2="1.27" y2="11.59" gradientUnits="userSpaceOnUse"><stop offset="0" stop-color="#78777e"/><stop offset="0.73" stop-color="#babbc4"/><stop offset="1" stop-color="#babbc4"/></linearGradient><linearGradient id="c" x1="124.29" y1="11.59" x2="125.56" y2="11.59" gradientTransform="matrix(-1, 0, 0, 1, 140.29, 0)" xlink:href="#b"/></defs><path class="a" d="M15.88,3.89A20.78,20.78,0,0,0,13,3.08v.37h-.3V3A24.2,24.2,0,0,0,8,2.56,24.2,24.2,0,0,0,3.26,3v.43H3V3.08a20.78,20.78,0,0,0-2.84.81A.2.2,0,0,0,0,4.07v9a.18.18,0,0,0,.18.17H15.81A.18.18,0,0,0,16,13v-9A.2.2,0,0,0,15.88,3.89Z"/><rect class="b" x="2.96" y="3.45" width="0.3" height="9.78"/><rect class="b" x="12.74" y="3.45" width="0.3" height="9.78"/><path class="c" d="M11.85,4.21a.52.52,0,0,0-.43-.51A22.38,22.38,0,0,0,8,3.45a22.38,22.38,0,0,0-3.42.25.52.52,0,0,0-.43.51v7.61a.52.52,0,0,0,.51.52h6.68a.52.52,0,0,0,.51-.52Z"/><path class="d" d="M1.27,13.22V10.54A.37.37,0,0,0,1,10.19L0,10v3.08a.19.19,0,0,0,.19.17Z"/><path class="b" d="M1.27,13.22v-2.8a.22.22,0,0,0-.17-.2L0,10l1,.4a.18.18,0,0,1,.1.15v2.7Z"/><path class="e" d="M14.73,13.22V10.54a.37.37,0,0,1,.29-.35L16,10v3.08a.19.19,0,0,1-.19.17Z"/><path class="b" d="M14.73,13.22v-2.8a.22.22,0,0,1,.17-.2L16,10l-1,.4a.18.18,0,0,0-.1.15v2.7Z"/><circle class="f" cx="7.99" cy="6.87" r="2.4"/><rect class="g" x="9.35" y="4.31" width="2.07" height="0.53" rx="0.26"/><rect class="g" x="5.67" y="10.78" width="3.59" height="0.58"/><rect class="g" x="4.58" y="11.56" width="2.07" height="0.49"/><rect class="g" x="7.37" y="11.56" width="1.89" height="0.49"/><rect class="h" x="9.98" y="10.78" width="1.45" height="1.32"/><path class="i" d="M6.4,5.18s0-1.07,1-.84S8.46,6.07,8.46,6.07Z"/><path class="j" d="M6.49,5.24l-.39.91S6,6.89,6.4,7s.68.3,1.08,0,.92-.32.93-.55,0-.49,0-.49Z"/><path class="k" d="M8,6.91l.47-.25.07-.21.76.29a1.28,1.28,0,0,1,.13.44.56.56,0,0,1-.14.34l-.9-.3L8,6.94"/><polygon class="i" points="7.83 6.9 8.94 7.46 8.57 8 8.06 7.79 7.35 8 6.68 7.52 6.49 7.13 7.3 7.22 7.83 6.9"/><rect class="i" x="5.32" y="8.4" width="0.64" height="0.64"/><rect class="l" x="6.03" y="8.4" width="0.55" height="0.64"/><rect class="i" x="8.67" y="8.53" width="1.48" height="0.83"/><rect class="m" x="6.65" y="8.4" width="0.55" height="0.64"/><rect class="l" x="7.27" y="8.4" width="0.48" height="0.64"/><rect class="n" x="7.85" y="8.4" width="0.66" height="0.66"/><rect class="n" x="8.46" y="9.48" width="1.11" height="0.8"/><rect class="i" x="8.03" y="9.16" width="0.4" height="1.12"/><rect class="m" x="7.05" y="9.19" width="0.84" height="1.05"/><rect class="n" x="6.23" y="9.26" width="0.64" height="0.98"/><rect class="l" x="4.79" y="9.16" width="1.3" height="1.22"/></svg>