<svg xmlns="http://www.w3.org/2000/svg" width="16" height="16" viewBox="0 0 16 16"><defs><style>.a{fill:#282828;}.b{fill:#fff;}.c{fill:#4c4c4c;}.d{fill:#b3b3b3;}.e{fill:#ddd;}</style></defs><path class="a" d="M13.65,0H4.75V.5h-.5V0H2.35a.6.6,0,0,0-.6.6V15.4a.6.6,0,0,0,.6.6h11.3a.6.6,0,0,0,.6-.6V.6A.6.6,0,0,0,13.65,0ZM8,8.5a1,1,0,1,1,1-1A1,1,0,0,1,8,8.5Z"/><circle class="b" cx="3.5" cy="1.3" r="0.5"/><circle class="b" cx="12.5" cy="1.3" r="0.5"/><circle class="c" cx="8" cy="9.9" r="0.4"/><rect class="c" x="7" y="1" width="2" height="4" rx="1"/><path class="d" d="M8,6A1.5,1.5,0,1,0,9.5,7.5,1.5,1.5,0,0,0,8,6ZM8,8.5a1,1,0,1,1,1-1A1,1,0,0,1,8,8.5Z"/><path class="e" d="M3.25,11h9.5a.5.5,0,0,1,.5.5V16a0,0,0,0,1,0,0H2.75a0,0,0,0,1,0,0V11.5A.5.5,0,0,1,3.25,11Z"/></svg>