<svg xmlns="http://www.w3.org/2000/svg" width="16" height="16" viewBox="0 0 16 16"><defs><style>.a{fill:#4c4c4c;}.b{fill:#ddd;}.c{fill:#bac1c7;}.d{fill:#fff;}</style></defs><path class="a" d="M8,0a8,8,0,1,0,8,8A8,8,0,0,0,8,0ZM8,9A1,1,0,1,1,9,8,1,1,0,0,1,8,9Z"/><path class="b" d="M8,.25A7.75,7.75,0,1,0,15.75,8,7.75,7.75,0,0,0,8,.25ZM8,9A1,1,0,1,1,9,8,1,1,0,0,1,8,9Z"/><path class="b" d="M8,5.75A2.25,2.25,0,1,0,10.25,8,2.25,2.25,0,0,0,8,5.75ZM8,9A1,1,0,1,1,9,8,1,1,0,0,1,8,9Z"/><path class="c" d="M8,6a2,2,0,1,0,2,2A2,2,0,0,0,8,6ZM8,9A1,1,0,1,1,9,8,1,1,0,0,1,8,9Z"/><path class="c" d="M8,6a2,2,0,1,0,2,2A2,2,0,0,0,8,6ZM8,9A1,1,0,1,1,9,8,1,1,0,0,1,8,9Z"/><path class="d" d="M9.19,6.1l2.9-4.65A7.63,7.63,0,0,0,8,.25v5.5A2.21,2.21,0,0,1,9.19,6.1Z"/><path class="d" d="M9.59,6.41l3.89-3.89a7.74,7.74,0,0,0-1-.82L9.3,6.17A2.31,2.31,0,0,1,9.59,6.41Z"/><path class="d" d="M6.81,9.9l-2.9,4.65A7.63,7.63,0,0,0,8,15.75v-5.5A2.21,2.21,0,0,1,6.81,9.9Z"/><path class="d" d="M6.41,9.59,2.52,13.48a7.74,7.74,0,0,0,1,.82L6.7,9.83A2.31,2.31,0,0,1,6.41,9.59Z"/></svg>