<svg xmlns="http://www.w3.org/2000/svg" width="16" height="16" viewBox="0 0 16 16"><defs><style>.a{fill:#267cb7;}.b{fill:#ddd;}.c{fill:#1f6392;}.d{fill:#bac1c7;}.e{fill:#18567f;}</style></defs><path class="a" d="M15.5,16H.5a.5.5,0,0,1-.5-.5V.5A.5.5,0,0,1,.5,0H14.24L16,1.76V15.5A.5.5,0,0,1,15.5,16Z"/><path class="b" d="M2.3,7H13.6a.4.4,0,0,1,.4.4V16a0,0,0,0,1,0,0H2a0,0,0,0,1,0,0V7.3A.3.3,0,0,1,2.3,7Z"/><path class="c" d="M2,0H13a0,0,0,0,1,0,0V5.09a.41.41,0,0,1-.41.41H2.4A.4.4,0,0,1,2,5.1V0A0,0,0,0,1,2,0Z"/><path class="d" d="M5,0h8a0,0,0,0,1,0,0V5.15a.35.35,0,0,1-.35.35H5.42A.42.42,0,0,1,5,5.08V0A0,0,0,0,1,5,0Z"/><rect class="c" x="10" y="1" width="2" height="4"/><rect class="e" x="0.5" y="13.5" width="1" height="1"/><rect class="e" x="14.5" y="14" width="1" height="1"/></svg>