<svg xmlns="http://www.w3.org/2000/svg" width="16" height="16" viewBox="0 0 16 16"><defs><style>.a{fill:#323230;}.b{fill:#3f3f3d;}.c{fill:#515451;}.d{fill:#fff;}.e{fill:#dcbe94;}.f{fill:#ffe98a;}.g{fill:#273391;}.h{fill:#575a4b;}.i{fill:#a09fa2;}.j{fill:#fe2f03;}</style></defs><path class="a" d="M.3,3H15.7a.3.3,0,0,1,.3.3V5a0,0,0,0,1,0,0H0A0,0,0,0,1,0,5V3.3A.3.3,0,0,1,.3,3Z"/><path class="b" d="M15.91,3.09,15.28,4H.74L.06,3.14A.31.31,0,0,0,0,3.3V5H.5v7.2a.29.29,0,0,0,.3.3H15.2a.29.29,0,0,0,.3-.3V5H16V3.3A.27.27,0,0,0,15.91,3.09Z"/><path class="c" d="M15.6,3.9a.29.29,0,0,0-.3-.3H.7a.29.29,0,0,0-.3.3V5H1v7.5H15V5h.6Z"/><path class="a" d="M2,4.3a31,31,0,0,1,6-.45,31,31,0,0,1,6,.45"/><rect class="d" x="2" y="5.25" width="12" height="6" rx="0.48"/><path class="e" d="M6.33,8.25a3.49,3.49,0,0,0,1.7,3h3.64a3.5,3.5,0,0,0,0-6H8A3.49,3.49,0,0,0,6.33,8.25Zm5.89,0A2.38,2.38,0,1,1,9.85,5.87,2.37,2.37,0,0,1,12.22,8.25Z"/><rect class="a" x="2.71" y="5.8" width="5.52" height="0.63"/><rect class="a" x="2.94" y="10.16" width="3.81" height="0.43"/><ellipse class="f" cx="9.85" cy="7.34" rx="1.11" ry="0.75" transform="translate(1.92 16.73) rotate(-86.51)"/><ellipse class="g" cx="10.92" cy="8.67" rx="0.4" ry="0.85" transform="translate(-1.11 15.7) rotate(-68.74)"/><ellipse class="h" cx="9.21" cy="9.49" rx="0.77" ry="2.1" transform="translate(-3.79 7.1) rotate(-35.44)"/><rect class="i" x="2.94" y="8.06" width="6.16" height="1.38"/><rect class="i" x="7.24" y="9.35" width="4.15" height="0.93"/><ellipse class="j" cx="9.62" cy="6.03" rx="1.12" ry="0.48" transform="translate(-1.73 6.21) rotate(-33)"/></svg>