<svg xmlns="http://www.w3.org/2000/svg" xmlns:xlink="http://www.w3.org/1999/xlink" width="16" height="16" viewBox="0 0 16 16"><defs><style>.a{fill:url(#a);}.b{fill:url(#b);}.c{fill:#ed1c24;}.d{fill:url(#c);}.e{fill:#595959;}.f{opacity:0.59;}.g{fill:#fff;}.h{fill:#a3cff2;}.i{fill:#6e463a;}.j{fill:#f5974d;}.k{fill:#fed2af;}</style><linearGradient id="a" x1="1.5" y1="8" x2="14.5" y2="8" gradientUnits="userSpaceOnUse"><stop offset="0" stop-color="#999"/><stop offset="0.05" stop-color="#333"/><stop offset="0.95" stop-color="#333"/><stop offset="1" stop-color="gray"/></linearGradient><linearGradient id="b" x1="2.49" y1="8" x2="13.49" y2="8" gradientUnits="userSpaceOnUse"><stop offset="0.01" stop-color="#f2f2f2"/><stop offset="0.93" stop-color="#babbc4"/></linearGradient><linearGradient id="c" x1="2.5" y1="5.5" x2="13.5" y2="5.5" gradientUnits="userSpaceOnUse"><stop offset="0" stop-color="#fcee21"/><stop offset="0.16" stop-color="#f7931e"/><stop offset="0.31" stop-color="#ed1c24"/><stop offset="0.44" stop-color="#93278f"/><stop offset="0.53" stop-color="#2e3192"/><stop offset="0.85" stop-color="#009245"/><stop offset="1" stop-color="#fcee21"/></linearGradient></defs><rect class="a" x="1.5" width="13" height="16" rx="0.4"/><rect class="b" x="2.49" y="1" width="11" height="14" rx="0.4"/><rect class="c" x="2.5" y="5.75" width="11" height="1.5"/><rect class="d" x="2.5" y="5.25" width="11" height="0.5"/><rect class="c" x="9.98" y="2.33" width="0.3" height="1.91"/><path class="c" d="M5.91,2.28a.22.22,0,0,0-.21.14h0L5.16,4.24h.32l.13-.5h.6l.13.5h.33L6.12,2.42h0A.24.24,0,0,0,5.91,2.28Zm0,.41.21.8H5.7Z"/><path class="c" d="M6.3,2.32v.26h.47V4.24h.3V2.58h.48V2.32Z"/><path class="c" d="M9.52,3.54a.08.08,0,0,1,0,0,.43.43,0,0,1,0-.05l.05,0a.6.6,0,0,0,.27-.53.56.56,0,0,0-.44-.59H8.94a.26.26,0,0,0-.22.29h0V4.24H9V2.69H9a.08.08,0,0,1,.07-.09h.28a.23.23,0,0,1,.18.21h0v0a0,0,0,0,1,0,0,.32.32,0,0,1-.11.24l0,0h0a.38.38,0,0,0-.15.1.36.36,0,0,0-.06.2.42.42,0,0,0,.05.2l.38.59H10l-.43-.7"/><path class="c" d="M7.9,2.28a.22.22,0,0,0-.21.14h0L7.15,4.24h.32l.13-.5h.6l.13.5h.33L8.11,2.42h0a.24.24,0,0,0-.21-.14Zm0,.41.21.8H7.69Z"/><path class="c" d="M11,4.23a.14.14,0,0,1-.09,0l-.11-.12c-.05,0-.08-.06-.11-.06l0,0a.07.07,0,0,0,0,.06s0,0,0,0l0,0v.07a.15.15,0,0,1-.09,0,.18.18,0,0,1,0-.1.15.15,0,0,1,0-.1.16.16,0,0,1,.11-.05.17.17,0,0,1,.12.06,1.59,1.59,0,0,0,.13.13l0,0V3.94h.07v.27H11"/><path class="c" d="M10.88,3.83l-.1,0-.16-.08-.07,0V3.61l.2.09v0a.16.16,0,0,1,0-.12.13.13,0,0,1,.1,0,.17.17,0,0,1,.17.17.13.13,0,0,1-.06.11.16.16,0,0,1-.12,0m0-.25a.09.09,0,0,0-.07,0,.07.07,0,0,0,0,.06.09.09,0,0,0,0,.07l.06,0,.07,0a.1.1,0,0,0,0-.14l-.06,0"/><path class="c" d="M10.81,3.42a.25.25,0,0,1-.19-.07.25.25,0,0,1,.18-.43A.23.23,0,0,1,11,3a.19.19,0,0,1,.08.17.28.28,0,0,1-.07.19.21.21,0,0,1-.17.07m0-.43a.17.17,0,0,0-.18.18.16.16,0,0,0,.06.13.15.15,0,0,0,.13.05.17.17,0,0,0,.13-.05A.21.21,0,0,0,11,3.17.18.18,0,0,0,10.93,3a.19.19,0,0,0-.13,0"/><path class="c" d="M10.81,2.83a.26.26,0,0,1-.19-.08.24.24,0,0,1-.07-.18.23.23,0,0,1,.07-.17.25.25,0,0,1,.18-.08.23.23,0,0,1,.17.07.19.19,0,0,1,.08.18.24.24,0,0,1-.07.18.21.21,0,0,1-.17.08m0-.44a.18.18,0,0,0-.13.06.17.17,0,0,0-.05.12.21.21,0,0,0,.19.19.18.18,0,0,0,.13-.06A.19.19,0,0,0,11,2.57a.18.18,0,0,0-.06-.13.19.19,0,0,0-.13,0"/><rect class="e" x="4" y="13.17" width="8" height="0.83"/><g class="f"><rect class="g" x="6" y="6.65" width="6" height="0.3"/></g><rect class="h" x="3.81" y="7.25" width="8.35" height="5.3"/><polygon class="g" points="5.81 6.81 3.81 7.41 3.81 6.41 5.81 5.81 5.81 6.81"/><ellipse class="i" cx="6.78" cy="10.4" rx="2.22" ry="1.65"/><ellipse class="j" cx="9.79" cy="11.54" rx="2.1" ry="1.01"/><ellipse class="k" cx="9.64" cy="9.26" rx="1.34" ry="1.43"/></svg>