<svg xmlns="http://www.w3.org/2000/svg" xmlns:xlink="http://www.w3.org/1999/xlink" width="16" height="16" viewBox="0 0 16 16"><defs><style>.a{fill:url(#a);}.b{fill:#333;}.c{fill:#4d4d4d;}.d{fill:#1a1a1a;}.e{fill:gray;}.f{fill:url(#b);}.g{fill:url(#c);}.h{fill:#fff;}.i{fill:url(#d);}.j{fill:#291819;}.k{fill:#666;}</style><linearGradient id="a" y1="7.97" x2="16" y2="7.97" gradientUnits="userSpaceOnUse"><stop offset="0" stop-color="gray"/><stop offset="0.04" stop-color="#333"/><stop offset="0.96" stop-color="#333"/><stop offset="1" stop-color="gray"/></linearGradient><linearGradient id="b" x1="5.26" y1="1.99" x2="10.61" y2="11.25" gradientTransform="translate(1.15 14.65) rotate(-90)" gradientUnits="userSpaceOnUse"><stop offset="0" stop-color="#7b2626"/><stop offset="0.26" stop-color="#7c2828"/><stop offset="0.38" stop-color="#82302f"/><stop offset="0.47" stop-color="#8b3d3a"/><stop offset="0.55" stop-color="#974f4a"/><stop offset="0.62" stop-color="#a7665f"/><stop offset="0.68" stop-color="#b98076"/><stop offset="1" stop-color="#fff"/></linearGradient><radialGradient id="c" cx="1.46" cy="4.73" r="0.41" gradientTransform="translate(1.65) scale(1.13 1)" gradientUnits="userSpaceOnUse"><stop offset="0" stop-color="#fff"/><stop offset="0.11" stop-color="#e1e7f2"/><stop offset="0.44" stop-color="#88a1cc"/><stop offset="0.71" stop-color="#476eb0"/><stop offset="0.9" stop-color="#1e4e9f"/><stop offset="1" stop-color="#0f4298"/></radialGradient><linearGradient id="d" x1="-52.54" y1="-41.05" x2="-52.54" y2="-39.48" gradientTransform="matrix(1, 0, 0, -1, 59.01, -35.51)" gradientUnits="userSpaceOnUse"><stop offset="0.31"/><stop offset="0.4" stop-color="#1b0007"/><stop offset="0.6" stop-color="#610018"/><stop offset="0.88" stop-color="#ce0033"/><stop offset="1" stop-color="#fd003e"/></linearGradient></defs><rect class="a" y="2.5" width="16" height="10.94" rx="0.41"/><path class="b" d="M.81,2.5V5.94L0,8.37V13a.41.41,0,0,0,.41.41H3.65V2.5Z"/><path class="b" d="M16,13V8.37l-.81-2.43V2.5H12.35V13.44h3.24A.41.41,0,0,0,16,13Z"/><path class="c" d="M4.89.27h5.29a1.56,1.56,0,0,1,1.56,1.56v9.84a1.57,1.57,0,0,1-1.57,1.57H4.89a.84.84,0,0,1-.84-.84V1.12A.84.84,0,0,1,4.89.27Z" transform="translate(14.65 -1.15) rotate(90)"/><path class="b" d="M2.79,3.31H13a.77.77,0,0,1,.77.77V9a1.18,1.18,0,0,1-1.18,1.18H3.21A1.18,1.18,0,0,1,2,9V4.08A.77.77,0,0,1,2.79,3.31Z"/><path class="d" d="M7.7,6.75,14,3.08a.8.8,0,0,0-.5-.17H2.26a.87.87,0,0,0-.54.19Z"/><path class="e" d="M14,10.05,7.7,6.75,1.87,10.13A1.53,1.53,0,0,0,3,10.6h9.84A1.54,1.54,0,0,0,14,10.05Z"/><path class="b" d="M2.79,3.31H13a.77.77,0,0,1,.77.77V9a1.18,1.18,0,0,1-1.18,1.18H3.21A1.18,1.18,0,0,1,2,9V4.08A.77.77,0,0,1,2.79,3.31Z"/><path class="f" d="M5.19,1.08h4.89a1.06,1.06,0,0,1,1.06,1.06v9.23a1.05,1.05,0,0,1-1.05,1.05H5.19a.53.53,0,0,1-.53-.53V1.61A.53.53,0,0,1,5.19,1.08Z" transform="translate(14.65 -1.15) rotate(90)"/><ellipse class="e" cx="6.68" cy="12.22" rx="0.61" ry="0.2" transform="translate(-6.68 8.31) rotate(-45)"/><ellipse class="e" cx="7.9" cy="12.22" rx="0.61" ry="0.2" transform="translate(-6.33 9.16) rotate(-45)"/><ellipse class="e" cx="9.11" cy="12.22" rx="0.61" ry="0.2" transform="translate(-5.97 10.02) rotate(-45)"/><ellipse class="g" cx="3.29" cy="4.73" rx="0.46" ry="0.41"/><rect class="h" x="6" y="1.9" width="0.97" height="5.66" transform="translate(11.21 -1.76) rotate(90)"/><rect class="b" x="3.75" y="4.32" width="5.48" height="0.81"/><path class="i" d="M6.59,4c-.36.37.5,1.32-.27,1.57C6.83,5,5.82,4.38,6.59,4Z"/><rect class="j" x="4.46" y="7.56" width="6.89" height="0.81"/><rect class="k" x="4.46" y="5.94" width="4.46" height="0.81"/><rect class="k" x="4.46" y="8.78" width="6.89" height="0.81"/><rect class="k" x="4.46" y="6.75" width="6.89" height="0.81"/></svg>