<svg xmlns="http://www.w3.org/2000/svg" width="16" height="16" viewBox="0 0 16 16"><defs><style>.a{fill:#fff;stroke-miterlimit:10;}.a,.b{stroke:#777;stroke-width:0.98px;}.b{fill:none;stroke-linejoin:round;}.c{fill:#666;}</style></defs><path class="a" d="M3.91,1V12.9a.46.46,0,0,0,.46.45h9.87a.45.45,0,0,0,.45-.45V4a.42.42,0,0,0-.13-.32l-3-3a.45.45,0,0,0-.32-.14H4.37A.47.47,0,0,0,3.91,1Z"/><polyline class="b" points="11.45 0.51 11.45 3.76 14.69 3.76"/><path class="a" d="M1.77,3.13V15.06a.46.46,0,0,0,.46.45H12.1a.45.45,0,0,0,.45-.45V6.11a.46.46,0,0,0-.13-.32l-3-3a.48.48,0,0,0-.32-.13H2.23A.47.47,0,0,0,1.77,3.13Z"/><polyline class="b" points="9.3 2.67 9.3 5.92 12.55 5.92"/><path class="c" d="M7.89,6.5a.17.17,0,0,0-.16.13.58.58,0,0,1-.57.45.57.57,0,0,1-.56-.45.18.18,0,0,0-.17-.13H5.16A.18.18,0,0,0,5,6.67v6.68a.17.17,0,0,0,.17.17h4a.17.17,0,0,0,.17-.17V6.67a.18.18,0,0,0-.17-.17Z"/><rect class="c" x="3.64" y="7.44" width="1.09" height="0.88"/><rect class="c" x="3.64" y="9" width="1.09" height="0.88"/><rect class="c" x="3.64" y="10.56" width="1.09" height="0.88"/><rect class="c" x="3.64" y="12.13" width="1.09" height="0.88"/><rect class="c" x="9.6" y="7.44" width="1.09" height="0.88"/><rect class="c" x="9.6" y="9" width="1.09" height="0.88"/><rect class="c" x="9.6" y="10.56" width="1.09" height="0.88"/><rect class="c" x="9.6" y="12.13" width="1.09" height="0.88"/></svg>