<svg xmlns="http://www.w3.org/2000/svg" xmlns:xlink="http://www.w3.org/1999/xlink" width="20" height="20" viewBox="0 0 20 20"><defs><style>.a{fill:#bfc1c1;}.b{fill:url(#a);}.c{fill:#565c5e;}.d{fill:#a8acad;}.e{fill:#fff;}.f{opacity:0.46;}</style><linearGradient id="a" x1="10.06" y1="2" x2="10.06" y2="17" gradientUnits="userSpaceOnUse"><stop offset="0" stop-color="#f7f7f7"/><stop offset="1" stop-color="#dcdcdc"/></linearGradient></defs><polygon class="a" points="3.06 18 3.06 1 13.47 1 17.06 4.59 17.06 18 3.06 18"/><polygon class="b" points="4.06 2 4.06 17 16.06 17 16.06 5 13.06 2 4.06 2"/><rect class="c" x="8.06" y="5.69" width="4" height="9" rx="0.61"/><rect class="d" x="7" y="6.69" width="1.06" height="1"/><rect class="d" x="7" y="8.69" width="1.06" height="1"/><rect class="d" x="7" y="12.69" width="1.06" height="1"/><rect class="d" x="12.06" y="12.69" width="0.94" height="1"/><rect class="d" x="12.06" y="10.69" width="0.94" height="1"/><rect class="d" x="12.06" y="8.69" width="0.94" height="1"/><rect class="d" x="12.06" y="6.69" width="0.94" height="1"/><rect class="d" x="7" y="10.69" width="1.06" height="1"/><polygon class="e" points="16.06 5 13.06 2 13.06 5 16.06 5"/><polygon class="a" points="13.06 5 13.06 2 12.06 2 12.06 6 16.06 6 16.06 5 13.06 5"/><polygon class="f" points="17.06 5.29 17.06 18 4.06 18 4.06 19 18.06 19 18.06 6.21 17.06 5.29"/></svg>