<svg xmlns="http://www.w3.org/2000/svg" width="16" height="16" viewBox="0 0 16 16"><defs><style>.a{fill:#72777c;}.b{fill:#4c4c4c;}.c{fill:#fff;}.d{fill:#af8d38;}</style></defs><path class="a" d="M16,4V.25A.25.25,0,0,0,15.75,0H.25A.25.25,0,0,0,0,.25v15.5A.25.25,0,0,0,.25,16h15.5a.25.25,0,0,0,.25-.25V5H15V4ZM8,9.5A1.5,1.5,0,1,1,9.5,8,1.5,1.5,0,0,1,8,9.5Z"/><rect class="b" x="7.25" y="11" width="1.5" height="4.5" rx="0.75"/><path class="b" d="M8,6a2,2,0,1,0,2,2A2,2,0,0,0,8,6ZM8,9.5A1.5,1.5,0,1,1,9.5,8,1.5,1.5,0,0,1,8,9.5Z"/><circle class="b" cx="10.5" cy="9.25" r="0.35"/><rect class="c" x="0.5" y="0.5" width="3.5" height="3.5" rx="0.2"/><path d="M3.79,4H.7a.2.2,0,0,1-.2-.2V1.5H4V3.79A.21.21,0,0,1,3.79,4Z"/><polygon class="d" points="2.88 2 1.63 2 1 2.5 2.25 3.5 2.25 3.5 3.5 2.5 2.88 2"/></svg>