<svg xmlns="http://www.w3.org/2000/svg" width="16" height="16" viewBox="0 0 16 16"><defs><style>.a{fill:#272e38;}.b{fill:#fff;}.c{fill:#0774d1;}.d{fill:#089932;}.e{fill:#fa590b;}.f{fill:#030007;}.g{fill:#fff51b;}</style></defs><path class="a" d="M1.35,2.5H14.65a.35.35,0,0,1,.35.35V13.5a0,0,0,0,1,0,0H1a0,0,0,0,1,0,0V2.85A.35.35,0,0,1,1.35,2.5Z"/><path d="M.8,3H1A0,0,0,0,1,1,3v9a0,0,0,0,1,0,0H.8a.8.8,0,0,1-.8-.8V3.8A.8.8,0,0,1,.8,3Z"/><path d="M15,3h.2a.8.8,0,0,1,.8.8V11.2a.8.8,0,0,1-.8.8H15a0,0,0,0,1,0,0V3A0,0,0,0,1,15,3Z"/><rect class="b" x="2" y="2.5" width="12" height="9.3"/><rect class="c" x="2" y="9.3" width="12" height="2.5"/><polygon class="d" points="6 9.3 2 6.3 2 9.3 6 9.3"/><polygon class="e" points="14 9.3 6 9.3 14 3.3 14 9.3"/><rect class="f" x="11" y="2.5" width="3" height="4.5"/><circle class="g" cx="5.75" cy="5.75" r="2.25"/></svg>