<svg xmlns="http://www.w3.org/2000/svg" xmlns:xlink="http://www.w3.org/1999/xlink" width="16" height="16" viewBox="0 0 16 16"><defs><style>.a{fill:#babbc4;}.b{fill:#fc0;}.c{fill:#2f53ab;}.d{fill:#5187b6;}.e{fill:#a0a0a3;}.f{fill:url(#a);}.g{fill:url(#b);}.h{fill:#385e5f;}.i{fill:#edc134;}.j{fill:#548b31;}</style><linearGradient id="a" x1="8" y1="3.75" x2="8" y2="1" gradientUnits="userSpaceOnUse"><stop offset="0.01" stop-color="#d7d9dd"/><stop offset="0.23" stop-color="#d4d5da"/><stop offset="0.42" stop-color="#c9cbcf"/><stop offset="0.61" stop-color="#b7b8bd"/><stop offset="0.79" stop-color="#9f9fa5"/><stop offset="0.97" stop-color="#7f7e85"/><stop offset="1" stop-color="#78777e"/></linearGradient><linearGradient id="b" x1="8" y1="3.75" x2="8" y2="1" gradientUnits="userSpaceOnUse"><stop offset="0.01" stop-color="#d7d9dd"/><stop offset="0.14" stop-color="#caccd2"/><stop offset="0.32" stop-color="#bebfc8"/><stop offset="0.5" stop-color="#babbc4"/><stop offset="0.62" stop-color="#b6b7c0"/><stop offset="0.74" stop-color="#ababb4"/><stop offset="0.86" stop-color="#9898a0"/><stop offset="0.98" stop-color="#7e7d84"/><stop offset="1" stop-color="#78777e"/></linearGradient></defs><path class="a" d="M13.5,0H1.26A.26.26,0,0,0,1,.26V15.74a.26.26,0,0,0,.26.26H14.74a.26.26,0,0,0,.26-.26V1.26A.26.26,0,0,0,14.74,1H13.5Z"/><rect class="b" x="2.75" y="4.5" width="10.5" height="9.5" rx="0.4"/><path class="c" d="M2.75,6.7h10.5a0,0,0,0,1,0,0v6.95a.35.35,0,0,1-.35.35H3.1a.35.35,0,0,1-.35-.35V6.7A0,0,0,0,1,2.75,6.7Z"/><path class="d" d="M12.9,14H3.1a.35.35,0,0,1-.35-.35V10.89l3.94.17,6.56,2.59A.35.35,0,0,1,12.9,14Z"/><path class="e" d="M1,6.5h.5a0,0,0,0,1,0,0V16a0,0,0,0,1,0,0H1.3a.3.3,0,0,1-.3-.3V6.5A0,0,0,0,1,1,6.5Z"/><path class="e" d="M14.5,6.5H15a0,0,0,0,1,0,0v9.2a.3.3,0,0,1-.3.3h-.2a0,0,0,0,1,0,0V6.5A0,0,0,0,1,14.5,6.5Z"/><rect class="f" x="2.5" y="1" width="11" height="2.75" rx="1.37"/><rect class="g" x="2.5" y="1" width="11" height="2.75" rx="1.37"/><path class="e" d="M2.2,2.37a1.67,1.67,0,0,1,.34-1H1v2H2.54A1.63,1.63,0,0,1,2.2,2.37Z"/><path class="e" d="M13.46,1.37a1.67,1.67,0,0,1,.34,1,1.63,1.63,0,0,1-.34,1H15v-2Z"/><polygon class="e" points="6.9 14.4 9.1 14.4 8 15.6 6.9 14.4"/><rect class="h" x="3.5" y="5.14" width="9" height="0.89"/><polygon class="i" points="2.75 10.89 2.75 9.44 3.64 8.67 4.69 9.78 6.11 8.06 7.14 9.82 7.69 8.92 9.27 12.07 11.56 9.82 12.31 10.07 11.52 12.96 2.75 10.89"/><polygon class="j" points="13.25 13.65 13.25 11.92 9.56 12.5 13.25 13.65"/></svg>